<?xml version="1.0" encoding="UTF-8" standalone="no" ?>
<!DOCTYPE svg PUBLIC "-//W3C//DTD SVG 1.1//EN" "http://www.w3.org/Graphics/SVG/1.1/DTD/svg11.dtd">
<svg xmlns="http://www.w3.org/2000/svg" xmlns:xlink="http://www.w3.org/1999/xlink" version="1.1" width="500" height="500" viewBox="0 0 500 500" xml:space="preserve">
<desc>Created with Fabric.js 3.6.3</desc>
<defs>
</defs>
<g transform="matrix(1 0 0 1 250.99712643678163 280.56054316659004)" style=""  ><path fill="#3498DB" opacity="1" d="M-110.60-9.35L-109.96-5.98L-108.10-5.98L-111.30-22.68L-113.99-22.68L-117.19-5.98L-115.47-5.98L-114.83-9.35ZM-112.75-20.58L-110.87-10.94L-114.59-10.94Z"/><path fill="#3498DB" opacity="1" d="M-96.87-5.98L-94.96-5.98L-99.32-15.07L-95.10-22.68L-96.99-22.68L-101.42-14.62L-101.42-22.68L-103.28-22.68L-103.28-5.98L-101.42-5.98L-101.42-11.59L-100.44-13.23Z"/><path fill="#3498DB" opacity="1" d="M-84.06-9.35L-83.42-5.98L-81.56-5.98L-84.75-22.68L-87.45-22.68L-90.64-5.98L-88.92-5.98L-88.28-9.35ZM-86.21-20.58L-84.32-10.94L-88.04-10.94Z"/><path fill="#3498DB" opacity="1" d="M-66.70-3.69L-66.70-7.63L-67.96-7.63L-67.96-22.68L-74.66-22.68L-75.31-10.06C-75.35-9.04-75.47-8.27-76.05-7.63L-77.12-7.63L-77.12-3.69L-75.33-3.69L-75.33-5.98L-68.51-5.98L-68.51-3.69ZM-72.95-20.98L-69.84-20.98L-69.84-7.63L-74.26-7.63C-73.73-8.18-73.57-8.89-73.49-10.09Z"/><path fill="#3498DB" opacity="1" d="M-59.85-15.28L-59.85-20.98L-54.84-20.98L-54.84-22.68L-61.71-22.68L-61.71-5.98L-54.84-5.98L-54.84-7.68L-59.85-7.68L-59.85-13.62L-55.77-13.62L-55.77-15.28Z"/><path fill="#3498DB" opacity="1" d="M-40.96-19.41L-40.96-5.98L-39.20-5.98L-39.20-22.68L-41.80-22.68L-44.44-9.35L-47.19-22.68L-49.79-22.68L-49.79-5.98L-48.17-5.98L-48.17-19.29L-45.40-6.01L-43.61-6.01Z"/><path fill="#3498DB" opacity="1" d="M-27.73-19.27L-27.73-5.98L-26.06-5.98L-26.06-22.68L-28.13-22.68L-30.56-15.50L-32.28-10.23L-32.28-22.68L-33.93-22.68L-33.93-5.98L-31.99-5.98L-29.51-13.73Z"/><path fill="#3498DB" opacity="1" d="M-15.18-13.11L-15.18-5.98L-13.32-5.98L-13.32-22.68L-17.04-22.68C-19.66-22.68-20.76-21.34-20.76-18.86L-20.76-17.50C-20.76-15.67-20.12-14.52-18.71-14.07C-20.21-13.62-20.79-12.37-20.79-10.59L-20.79-7.99C-20.79-7.25-20.83-6.56-21.12-5.98L-19.24-5.98C-19.02-6.46-18.92-6.89-18.92-8.01L-18.92-10.63C-18.92-12.52-18.04-13.11-16.49-13.11ZM-15.18-20.98L-15.18-14.81L-16.59-14.81C-18.04-14.81-18.92-15.28-18.92-17.10L-18.92-18.70C-18.92-20.20-18.38-20.98-16.99-20.98Z"/><path fill="#3498DB" opacity="1" d=""/><path fill="#3498DB" opacity="1" d="M0.87-15.79L0.87-20.98L6.07-20.98L6.07-22.68L-0.97-22.68L-0.97-5.98L2.92-5.98C5.55-5.98 6.76-7.44 6.76-10.04L6.76-11.87C6.76-14.55 5.43-15.79 2.83-15.79ZM0.87-7.68L0.87-14.12L2.83-14.12C4.19-14.12 4.90-13.62 4.90-11.99L4.90-9.92C4.90-8.37 4.28-7.68 2.92-7.68Z"/><path fill="#3498DB" opacity="1" d="M18.14-19.27L18.14-5.98L19.81-5.98L19.81-22.68L17.73-22.68L15.30-15.50L13.58-10.23L13.58-22.68L11.94-22.68L11.94-5.98L13.87-5.98L16.35-13.73Z"/><path fill="#3498DB" opacity="1" d="M28.70-22.84C26.15-22.84 24.98-21.22 24.98-18.67L24.98-17.62L26.70-17.62L26.70-18.74C26.70-20.25 27.32-21.15 28.66-21.15C30.02-21.15 30.61-20.29 30.61-18.58L30.61-17.81C30.61-16.36 29.80-15.52 28.56-15.52L27.68-15.52L27.68-13.85L28.46-13.85C29.87-13.85 30.61-12.99 30.61-11.37L30.61-10.06C30.61-8.39 30.02-7.51 28.66-7.51C27.32-7.51 26.70-8.42 26.70-9.92L26.70-11.64L24.96-11.64L24.96-10.01C24.96-7.49 26.15-5.82 28.70-5.82C31.28-5.82 32.47-7.49 32.47-10.01L32.47-11.33C32.47-12.99 31.83-14.28 30.42-14.76C31.78-15.26 32.47-16.50 32.47-18.22L32.47-18.65C32.47-21.18 31.28-22.84 28.70-22.84Z"/><path fill="#3498DB" opacity="1" d="M43.61-13.50L43.61-5.98L45.47-5.98L45.47-22.68L43.61-22.68L43.61-15.17L39.51-15.17L39.51-22.68L37.65-22.68L37.65-5.98L39.51-5.98L39.51-13.50Z"/><path fill="#3498DB" opacity="1" d="M52.60-15.28L52.60-20.98L57.61-20.98L57.61-22.68L50.74-22.68L50.74-5.98L57.61-5.98L57.61-7.68L52.60-7.68L52.60-13.62L56.68-13.62L56.68-15.28Z"/><path fill="#3498DB" opacity="1" d="M66.29-22.84C63.74-22.84 62.55-21.18 62.55-18.65L62.55-10.01C62.55-7.49 63.74-5.82 66.29-5.82C68.87-5.82 70.06-7.49 70.06-10.01L70.06-12.09L68.29-12.09L68.29-9.92C68.29-8.42 67.70-7.51 66.34-7.51C65.00-7.51 64.38-8.42 64.38-9.92L64.38-18.74C64.38-20.25 65.00-21.15 66.34-21.15C67.70-21.15 68.29-20.25 68.29-18.74L68.29-17.14L70.06-17.14L70.06-18.65C70.06-21.18 68.87-22.84 66.29-22.84Z"/><path fill="#3498DB" opacity="1" d="M75.04-13.50L79.60-13.50L79.60-15.17L75.04-15.17Z"/><path fill="#3498DB" opacity="1" d="M91.00-19.27L91.00-5.98L92.67-5.98L92.67-22.68L90.59-22.68L88.16-15.50L86.44-10.23L86.44-22.68L84.80-22.68L84.80-5.98L86.73-5.98L89.21-13.73Z"/><path fill="#3498DB" opacity="1" d="M104.59-20.98L104.59-22.68L97.94-22.68L97.94-5.98L99.78-5.98L99.78-20.98Z"/><path fill="#3498DB" opacity="1" d="M109.77-22.68L109.77-5.98L111.63-5.98L111.63-12.57L113.28-12.57C115.92-12.57 117.16-13.95 117.16-16.60L117.16-18.60C117.16-21.13 116.04-22.68 113.42-22.68ZM111.63-14.24L111.63-20.98L113.42-20.98C114.78-20.98 115.33-20.22 115.33-18.70L115.33-16.48C115.33-14.88 114.66-14.24 113.28-14.24Z"/><path fill="#3498DB" opacity="1" d="M-90.86 7.68L-90.86 20.97L-89.19 20.97L-89.19 4.27L-91.26 4.27L-93.69 11.45L-95.41 16.72L-95.41 4.27L-97.06 4.27L-97.06 20.97L-95.13 20.97L-92.65 13.22Z"/><path fill="#3498DB" opacity="1" d=""/><path fill="#3498DB" opacity="1" d="M-70.92 13.45L-70.92 20.97L-69.06 20.97L-69.06 4.27L-70.92 4.27L-70.92 11.79L-75.02 11.79L-75.02 4.27L-76.88 4.27L-76.88 20.97L-75.02 20.97L-75.02 13.45Z"/><path fill="#3498DB" opacity="1" d="M-57.68 17.60L-57.04 20.97L-55.18 20.97L-58.37 4.27L-61.07 4.27L-64.26 20.97L-62.55 20.97L-61.90 17.60ZM-59.83 6.37L-57.94 16.01L-61.66 16.01Z"/><path fill="#3498DB" opacity="1" d="M-46.76 4.11C-49.31 4.11-50.50 5.78-50.50 8.30L-50.50 16.94C-50.50 19.46-49.31 21.13-46.76 21.13C-44.18 21.13-42.99 19.46-42.99 16.94L-42.99 14.86L-44.75 14.86L-44.75 17.03C-44.75 18.53-45.35 19.44-46.71 19.44C-48.05 19.44-48.67 18.53-48.67 17.03L-48.67 8.21C-48.67 6.71-48.05 5.80-46.71 5.80C-45.35 5.80-44.75 6.71-44.75 8.21L-44.75 9.81L-42.99 9.81L-42.99 8.30C-42.99 5.78-44.18 4.11-46.76 4.11Z"/><path fill="#3498DB" opacity="1" d="M-33.52 20.97L-33.52 5.97L-30.44 5.97L-30.44 4.27L-38.46 4.27L-38.46 5.97L-35.38 5.97L-35.38 20.97Z"/><path fill="#3498DB" opacity="1" d="M-19.59 17.60L-18.95 20.97L-17.09 20.97L-20.28 4.27L-22.98 4.27L-26.18 20.97L-24.46 20.97L-23.81 17.60ZM-21.74 6.37L-19.86 16.01L-23.58 16.01Z"/><path fill="#3498DB" opacity="1" d="M-12.27 4.27L-12.27 20.97L-8.43 20.97C-5.83 20.97-4.61 19.56-4.61 17.06L-4.61 15.65C-4.61 13.81-5.24 12.52-6.86 12.07C-5.40 11.62-4.90 10.52-4.90 8.76L-4.90 7.97C-4.90 5.51-5.93 4.27-8.53 4.27ZM-10.41 11.36L-10.41 5.97L-8.57 5.97C-7.24 5.97-6.74 6.68-6.74 8.16L-6.74 9.14C-6.74 10.88-7.50 11.36-8.98 11.36ZM-10.41 19.27L-10.41 13.05L-8.79 13.05C-7.19 13.05-6.45 13.67-6.45 15.53L-6.45 17.01C-6.45 18.56-7.07 19.27-8.43 19.27Z"/><path fill="#3498DB" opacity="1" d="M6.40 13.45L6.40 20.97L8.26 20.97L8.26 4.27L6.40 4.27L6.40 11.79L2.30 11.79L2.30 4.27L0.44 4.27L0.44 20.97L2.30 20.97L2.30 13.45Z"/><path fill="#3498DB" opacity="1" d="M19.74 7.68L19.74 20.97L21.41 20.97L21.41 4.27L19.33 4.27L16.90 11.45L15.18 16.72L15.18 4.27L13.53 4.27L13.53 20.97L15.47 20.97L17.95 13.22Z"/><path fill="#3498DB" opacity="1" d="M32.45 20.97L34.28 20.97L34.28 4.27L32.45 4.27L32.45 11.24C32.26 12.50 31.57 13.19 30.44 13.19C29.13 13.19 28.39 12.19 28.39 10.78L28.39 4.27L26.53 4.27L26.53 10.93C26.53 13.17 27.61 14.89 29.85 14.89C30.85 14.89 31.85 14.43 32.45 13.57Z"/><path fill="#3498DB" opacity="1" d="M41.44 11.67L41.44 5.97L46.45 5.97L46.45 4.27L39.58 4.27L39.58 20.97L46.45 20.97L46.45 19.27L41.44 19.27L41.44 13.34L45.52 13.34L45.52 11.67Z"/><path fill="#3498DB" opacity="1" d="M55.13 4.11C52.58 4.11 51.38 5.78 51.38 8.30L51.38 16.94C51.38 19.46 52.58 21.13 55.13 21.13C57.71 21.13 58.90 19.46 58.90 16.94L58.90 14.86L57.13 14.86L57.13 17.03C57.13 18.53 56.54 19.44 55.18 19.44C53.84 19.44 53.22 18.53 53.22 17.03L53.22 8.21C53.22 6.71 53.84 5.80 55.18 5.80C56.54 5.80 57.13 6.71 57.13 8.21L57.13 9.81L58.90 9.81L58.90 8.30C58.90 5.78 57.71 4.11 55.13 4.11Z"/><path fill="#3498DB" opacity="1" d="M68.37 20.97L68.37 5.97L71.44 5.97L71.44 4.27L63.43 4.27L63.43 5.97L66.51 5.97L66.51 20.97Z"/><path fill="#3498DB" opacity="1" d="M76.19 4.27L76.19 20.97L80.03 20.97C82.63 20.97 83.84 19.56 83.84 17.06L83.84 15.65C83.84 13.81 83.22 12.52 81.60 12.07C83.06 11.62 83.56 10.52 83.56 8.76L83.56 7.97C83.56 5.51 82.53 4.27 79.93 4.27ZM78.05 11.36L78.05 5.97L79.89 5.97C81.22 5.97 81.72 6.68 81.72 8.16L81.72 9.14C81.72 10.88 80.96 11.36 79.48 11.36ZM78.05 19.27L78.05 13.05L79.67 13.05C81.27 13.05 82.01 13.67 82.01 15.53L82.01 17.01C82.01 18.56 81.39 19.27 80.03 19.27Z"/><path fill="#3498DB" opacity="1" d="M95.01 17.60L95.65 20.97L97.51 20.97L94.31 4.27L91.62 4.27L88.42 20.97L90.14 20.97L90.79 17.60ZM92.86 6.37L94.74 16.01L91.02 16.01Z"/></g><g transform="matrix(1 0 0 1 249.55432783130257 187.1270590858223)" style=""  ><path fill="#3498DB" opacity="1" d="M-64.64-21.74L-64.64-21.74Q-64.93-21.65-64.68-21.30Q-64.44-20.96-64.64-20.56L-64.64-20.56Q-64.44-20.76-64.39-21.15Q-64.34-21.55-64.14-21.74L-64.14-21.74Q-63.85-21.45-63.60-21.20Q-63.36-20.96-62.96-20.76L-62.96-20.76Q-63.26-20.46-63.55-20.17Q-63.85-19.87-64.64-20.07L-64.64-20.07Q-64.44-19.18-64.34-17.17Q-64.24-15.15-63.95-13.47L-63.95-13.47Q-63.85-12.98-63.75-12.29Q-63.65-11.60-63.55-11.41L-63.55-11.41Q-63.55-11.31-63.16-10.82Q-62.77-10.32-62.96-10.32L-62.96-10.32Q-62.37-10.32-62.77-11.36Q-63.16-12.39-63.16-13.28L-63.16-13.28Q-62.86-13.47-62.81-13.38Q-62.77-13.28-62.27-13.47L-62.27-13.47Q-62.27-11.21-61.73-8.85Q-61.19-6.48-61.49-4.42L-61.49-4.42Q-60.21-4.32-58.83-4.42Q-57.45-4.52-56.56-4.02L-56.56-4.02Q-56.46-3.14-57.25-3.14L-57.25-3.14Q-57.45-2.64-57.01-2.64Q-56.56-2.64-56.76-2.15L-56.76-2.15Q-57.55-1.07-58.83-0.58Q-60.11-0.08-61.39 0.60L-61.39 0.60Q-60.89 1.79-60.75 3.02Q-60.60 4.25-60.65 5.53Q-60.70 6.81-60.75 8.14Q-60.80 9.47-60.60 10.75L-60.60 10.75Q-60.40 12.42-59.66 14.34Q-58.93 16.26-59.12 18.23L-59.12 18.23Q-59.91 18.23-60.11 17.74Q-60.30 17.24-60.40 16.55L-60.40 16.55L-60.99 16.55Q-61.39 17.54-61.44 18.28Q-61.49 19.02-61.53 19.70Q-61.58 20.39-61.63 21.18Q-61.68 21.97-62.08 23.05L-62.08 23.05Q-61.58 23.84-62.03 24.82Q-62.47 25.81-62.47 26.89L-62.47 26.89Q-62.86 27.09-63.16 27.24Q-63.45 27.38-63.95 27.48L-63.95 27.48Q-64.04 27.97-64.44 28.47Q-64.83 28.96-65.23 29.50Q-65.62 30.04-65.77 30.73Q-65.92 31.42-65.42 32.21L-65.42 32.21Q-66.11 32.41-66.56 33.19Q-67.00 33.98-67.44 34.62Q-67.88 35.26-68.48 35.51Q-69.07 35.75-69.95 34.87L-69.95 34.87Q-69.85 33.39-70.44 31.86Q-71.04 30.34-70.54 29.45L-70.54 29.45Q-71.13 28.76-71.13 27.68Q-71.13 26.60-71.33 25.22L-71.33 25.22Q-70.84 25.51-70.49 25.37Q-70.15 25.22-69.85 25.02L-69.85 25.02Q-70.05 24.43-70.00 24.28Q-69.95 24.14-69.46 23.74L-69.46 23.74Q-70.25 23.54-70.10 23.15Q-69.95 22.76-70.74 22.26L-70.74 22.26Q-70.94 22.46-70.84 22.90Q-70.74 23.35-70.64 23.79Q-70.54 24.23-70.69 24.58Q-70.84 24.92-71.43 25.02L-71.43 25.02Q-71.43 24.33-71.72 23.54Q-72.02 22.76-72.27 21.92Q-72.51 21.08-72.56 20.15Q-72.61 19.21-72.22 18.23L-72.22 18.23Q-73.00 17.83-72.86 17.00Q-72.71 16.16-73.30 15.47L-73.30 15.47Q-73.00 14.78-73.10 14.04Q-73.20 13.31-73.35 12.71Q-73.50 12.12-73.55 11.63Q-73.60 11.14-73.10 10.84L-73.10 10.84Q-73.89 9.86-73.94 8.58Q-73.99 7.30-74.09 5.92L-74.09 5.92Q-74.28 5.72-74.53 5.58Q-74.78 5.43-74.97 5.13L-74.97 5.13Q-77.73 6.22-81.32 6.71Q-84.92 7.20-88.36 7.00L-88.36 7.00Q-90.04 9.37-91.61 11.43Q-93.19 13.50-94.47 16.36L-94.47 16.36Q-95.45 16.46-95.45 17.83L-95.45 17.83Q-96.73 19.21-97.82 20.69Q-98.90 22.17-100.18 23.54L-100.18 23.54Q-100.97 25.22-101.85 26.60Q-102.74 27.97-105.00 28.17L-105.00 28.17Q-105.49 27.68-105.84 26.65Q-106.18 25.61-105.49 24.73L-105.49 24.73Q-105.59 24.53-106.09 24.53L-106.09 24.53Q-105.89 23.64-105.64 22.66Q-105.40 21.67-105.20 21.18L-105.20 21.18Q-104.81 21.28-104.95 21.72Q-105.10 22.17-104.81 22.26L-104.81 22.26Q-104.31 22.17-104.46 21.43Q-104.61 20.69-105.20 20.79L-105.20 20.79Q-104.71 17.74-103.33 14.04Q-101.95 10.35-100.57 7.79L-100.57 7.79Q-100.87 7.50-101.11 7.55Q-101.36 7.59-101.61 7.74Q-101.85 7.89-102.10 8.09Q-102.34 8.28-102.74 8.09L-102.74 8.09Q-102.44 7.20-101.70 6.71Q-100.97 6.22-99.98 5.92L-99.98 5.92Q-99.19 3.46-98.11 1.34Q-97.03-0.77-96.54-3.33L-96.54-3.33Q-96.24-3.33-96.09-3.58Q-95.94-3.83-95.85-4.12Q-95.75-4.42-95.60-4.61Q-95.45-4.81-95.06-4.81L-95.06-4.81Q-95.35-5.11-95.21-5.40Q-95.06-5.70-94.86-5.89Q-94.66-6.09-94.52-6.39Q-94.37-6.68-94.66-6.98L-94.66-6.98Q-94.07-7.67-93.68-8.55Q-93.29-9.44-92.89-10.42Q-92.50-11.41-91.96-12.34Q-91.42-13.28-90.63-13.97L-90.63-13.97Q-90.43-14.95-90.04-15.74Q-89.64-16.53-89.15-17.22Q-88.66-17.91-88.22-18.64Q-87.77-19.38-87.48-20.27L-87.48-20.27Q-87.08-20.17-86.94-20.37Q-86.79-20.56-86.59-20.56L-86.59-20.56Q-86.69-20.86-86.84-21.01Q-86.98-21.15-86.89-21.55L-86.89-21.55Q-85.21-23.32-83.74-25.34Q-82.26-27.36-80.68-29.33Q-79.11-31.29-77.29-33.02Q-75.47-34.74-73.10-35.92L-73.10-35.92Q-73.30-36.41-72.96-36.96Q-72.61-37.50-72.91-37.69L-72.91-37.69Q-71.72-38.48-71.13-38.14Q-70.54-37.79-70.30-36.96Q-70.05-36.12-69.90-35.09Q-69.76-34.05-69.26-33.46L-69.26-33.46Q-68.67-33.66-68.38-34.00Q-68.08-34.35-67.59-34.64L-67.59-34.64Q-66.51-33.95-65.92-32.72Q-65.32-31.49-65.03-30.06Q-64.73-28.64-64.59-27.16Q-64.44-25.68-64.14-24.50L-64.14-24.50Q-64.04-24.11-64.14-24.16Q-64.24-24.21-64.44-24.30L-64.44-24.30Q-64.44-23.81-64.24-23.42Q-64.04-23.02-63.90-22.73Q-63.75-22.43-63.85-22.19Q-63.95-21.94-64.64-21.74ZM-72.41-36.12L-72.41-36.12Q-72.12-35.63-72.27-35.04Q-72.41-34.45-72.61-33.66L-72.61-33.66Q-72.12-33.76-72.07-33.46Q-72.02-33.17-72.02-32.77L-72.02-32.77Q-71.53-32.97-71.28-33.21Q-71.04-33.46-70.54-32.97L-70.54-32.97Q-70.64-33.66-70.79-34.94Q-70.94-36.22-71.82-36.81L-71.82-36.81Q-71.92-36.51-72.07-36.41Q-72.22-36.32-72.41-36.12ZM-66.51-25.19L-66.51-25.19Q-66.41-24.80-66.01-24.65Q-65.62-24.50-65.42-24.70L-65.42-24.70Q-65.82-25.98-66.01-27.41Q-66.21-28.83-66.70-30.01L-66.70-30.01Q-66.80-28.93-66.51-27.36Q-66.21-25.78-65.92-24.99L-65.92-24.99Q-66.21-25.19-66.21-25.34Q-66.21-25.49-66.51-25.19ZM-80.09-24.11L-80.09-24.11Q-79.70-24.80-79.01-25.14Q-78.32-25.49-78.12-26.27L-78.12-26.27Q-78.12-26.47-78.22-26.52Q-78.32-26.57-78.42-26.67L-78.42-26.67Q-78.81-26.08-79.60-25.49Q-80.39-24.90-80.09-24.11ZM-71.82-21.35L-71.82-21.35Q-72.32-21.35-72.41-21.10Q-72.51-20.86-72.91-20.76L-72.91-20.76Q-73.00-21.06-72.91-21.40Q-72.81-21.74-73.30-21.55L-73.30-21.55L-73.30-20.76Q-73.20-20.56-72.76-20.66Q-72.32-20.76-72.22-20.46L-72.22-20.46Q-72.02-19.97-72.36-19.97Q-72.71-19.97-72.61-19.48L-72.61-19.48Q-72.12-19.68-72.12-19.43Q-72.12-19.18-71.82-19.09L-71.82-19.09Q-71.72-19.78-71.58-20.66Q-71.43-21.55-71.28-22.43Q-71.13-23.32-71.08-24.06Q-71.04-24.80-71.13-25.19L-71.13-25.19Q-72.22-23.32-71.82-21.35ZM-74.78-5.30L-74.78-5.30Q-74.68-6.58-74.83-7.42Q-74.97-8.26-74.09-9.14L-74.09-9.14Q-74.68-9.14-74.97-9.54L-74.97-9.54Q-74.97-10.03-74.78-10.18Q-74.58-10.32-74.38-10.52L-74.38-10.52Q-74.97-10.91-74.97-11.60L-74.97-11.60Q-74.97-12.88-74.78-15.05Q-74.58-17.22-74.09-18.40L-74.09-18.40Q-74.58-18.59-74.38-19.38Q-74.19-20.17-74.09-20.56L-74.09-20.56Q-74.48-20.66-74.43-21.10Q-74.38-21.55-74.28-21.99Q-74.19-22.43-74.19-22.83Q-74.19-23.22-74.58-23.42L-74.58-23.42Q-74.48-22.63-74.63-22.58Q-74.78-22.53-75.17-22.43L-75.17-22.43Q-75.27-21.15-75.76-20.02Q-76.25-18.89-75.66-17.71L-75.66-17.71Q-76.15-17.51-76.40-17.46Q-76.65-17.41-76.94-17.31L-76.94-17.31Q-78.71-13.18-80.44-9.19Q-82.16-5.20-83.83-1.27L-83.83-1.27Q-81.57-1.56-79.80-2.20Q-78.03-2.84-75.66-2.94L-75.66-2.94Q-75.66-3.63-75.56-3.83Q-75.47-4.02-74.58-4.02L-74.58-4.02Q-74.48-4.52-74.63-4.76Q-74.78-5.01-74.97-5.30L-74.97-5.30Q-75.47-5.20-75.71-4.91Q-75.96-4.61-76.25-5.30L-76.25-5.30Q-75.86-5.50-75.47-5.60Q-75.07-5.70-74.78-5.30ZM-86.00-11.41L-86.00-11.41Q-85.31-12.49-84.28-13.62Q-83.24-14.75-83.05-15.84L-83.05-15.84Q-82.75-15.94-82.46-16.28Q-82.16-16.63-81.96-17.07Q-81.77-17.51-81.72-17.91Q-81.67-18.30-81.77-18.40L-81.77-18.40Q-82.85-16.82-84.18-15.00Q-85.51-13.18-86.00-11.41ZM-68.67-17.31L-68.67-17.31L-68.67-18.40L-69.26-18.40Q-69.36-17.91-69.12-17.76Q-68.87-17.61-68.67-17.31ZM-69.07-16.53L-69.07-16.53Q-68.67-16.72-68.97-17.17Q-69.26-17.61-69.46-17.71L-69.46-17.71Q-69.36-17.41-69.46-16.92Q-69.56-16.43-69.07-16.53ZM-69.26-12.10L-69.26-12.10Q-69.07-12.59-69.02-13.33Q-68.97-14.07-69.46-14.56L-69.46-14.56Q-69.66-14.16-69.71-13.23Q-69.76-12.29-69.26-12.10ZM-88.56-6.09L-88.56-6.09Q-88.76-5.70-88.51-5.65Q-88.26-5.60-88.26-5.30L-88.26-5.30Q-88.95-5.11-89.15-4.32Q-89.35-3.53-89.35-2.55L-89.35-2.55Q-89.84-2.45-89.99-2.05Q-90.14-1.66-90.23-1.22Q-90.33-0.77-90.53-0.43Q-90.73-0.08-91.22 0.01L-91.22 0.01Q-90.43 0.21-90.78 0.31Q-91.12 0.41-91.02 0.90L-91.02 0.90Q-90.53 1.20-90.04 1.10L-90.04 1.10Q-88.36-1.86-86.94-5.40Q-85.51-8.95-83.83-12.10L-83.83-12.10Q-84.82-11.60-85.36-10.82Q-85.90-10.03-86.35-9.19Q-86.79-8.35-87.23-7.52Q-87.67-6.68-88.56-6.09ZM-69.85-10.13L-69.85-10.13Q-69.26-10.32-69.36-10.91Q-69.46-11.51-69.66-12.00L-69.66-12.00Q-70.05-11.60-69.85-10.96Q-69.66-10.32-69.85-10.13ZM-70.15-4.42L-70.15-4.42Q-69.66-5.30-69.56-6.24Q-69.46-7.17-69.95-7.86L-69.95-7.86Q-69.85-8.06-69.46-8.01Q-69.07-7.96-69.26-8.45L-69.26-8.45Q-69.46-8.55-69.66-8.60Q-69.85-8.65-70.15-8.85L-70.15-8.85Q-70.44-7.76-70.40-6.58Q-70.35-5.40-70.15-4.42ZM-68.48-5.89L-68.48-5.89Q-68.48-5.50-68.43-4.71Q-68.38-3.92-67.59-4.02L-67.59-4.02Q-67.59-5.70-67.64-6.68Q-67.69-7.67-67.39-8.85L-67.39-8.85L-67.98-8.85Q-67.98-8.16-68.28-7.42Q-68.57-6.68-68.48-5.89ZM-60.01-2.05L-60.01-1.27Q-59.22-1.27-58.73-2.05L-58.73-2.05L-60.01-2.05ZM-85.61 2.18L-85.61 2.18Q-83.34 1.88-80.39 1.24Q-77.43 0.60-75.17-0.38L-75.17-0.38Q-78.22-0.08-80.88 0.46Q-83.54 1.00-85.61 2.18ZM-68.38 5.13L-68.38 5.13Q-68.18 4.94-67.98 5.03L-67.98 5.03Q-67.88 5.13-67.93 5.23Q-67.98 5.33-67.79 5.33L-67.79 5.33Q-67.79 5.03-67.79 4.74Q-67.79 4.44-67.59 4.25L-67.59 4.25Q-67.79 4.15-67.93 4.05Q-68.08 3.95-68.38 4.05L-68.38 4.05Q-68.48 4.15-68.57 4.64Q-68.67 5.13-68.38 5.13ZM-81.96 4.64L-81.96 4.64Q-81.47 4.74-81.18 4.74Q-80.88 4.74-80.68 4.25L-80.68 4.25Q-81.08 4.35-81.42 4.40Q-81.77 4.44-81.96 4.64ZM-76.84 4.84L-76.84 4.84Q-76.65 5.03-76.15 4.94Q-75.66 4.84-75.56 4.44L-75.56 4.44Q-75.96 4.44-76.30 4.49Q-76.65 4.54-76.84 4.84ZM-84.33 5.13L-84.33 5.13Q-83.83 5.03-83.15 5.03Q-82.46 5.03-82.16 4.64L-82.16 4.64Q-82.85 4.64-83.49 4.69Q-84.13 4.74-84.33 5.13ZM-66.70 13.31L-66.70 13.31Q-66.31 11.53-66.46 9.96Q-66.60 8.38-66.31 6.81L-66.31 6.81L-66.90 6.81Q-66.90 7.89-67.05 8.78Q-67.20 9.66-67.29 10.40Q-67.39 11.14-67.29 11.83Q-67.20 12.52-66.70 13.31ZM-94.86 9.56L-94.86 9.56Q-94.17 9.76-93.98 9.12Q-93.78 8.48-93.98 8.28L-93.98 8.28Q-94.37 8.48-94.52 8.83Q-94.66 9.17-94.86 9.56ZM-97.82 11.04L-97.82 11.04Q-97.03 11.14-96.98 10.45Q-96.93 9.76-96.54 9.37L-96.54 9.37Q-96.73 9.37-96.83 9.27Q-96.93 9.17-97.22 9.27L-97.22 9.27Q-97.72 9.47-97.62 10.11Q-97.52 10.75-97.82 11.04ZM-97.03 13.80L-97.03 13.80Q-96.54 13.11-96.04 12.47Q-95.55 11.83-95.45 10.75L-95.45 10.75Q-96.54 10.94-96.88 12.12Q-97.22 13.31-97.03 13.80ZM-68.87 13.80L-68.87 13.80Q-68.87 12.91-68.77 12.42Q-68.67 11.93-69.26 11.63L-69.26 11.63Q-69.07 12.12-69.21 12.71Q-69.36 13.31-68.87 13.80ZM-102.05 15.27L-102.05 15.27Q-102.44 14.78-102.00 14.68Q-101.56 14.59-102.05 14.19L-102.05 14.19Q-102.05 14.39-102.34 14.83Q-102.64 15.27-102.05 15.27ZM-60.99 14.59L-60.99 14.59Q-61.09 14.98-60.85 14.93Q-60.60 14.88-60.40 15.08L-60.40 15.08Q-60.50 14.88-60.25 14.63Q-60.01 14.39-60.40 14.19L-60.40 14.19Q-60.40 14.59-60.99 14.59ZM-99.69 17.83L-99.69 17.83Q-99.00 17.54-98.41 16.75Q-97.82 15.96-97.82 15.47L-97.82 15.47Q-98.31 15.96-99.05 16.60Q-99.78 17.24-99.69 17.83ZM-67.98 19.31L-67.98 19.31Q-67.69 19.80-67.64 20.25Q-67.59 20.69-67.39 20.98L-67.39 20.98Q-67.20 20.69-67.20 20.25Q-67.20 19.80-67.00 19.31L-67.00 19.31Q-67.39 19.31-67.54 19.21Q-67.69 19.11-67.98 19.31ZM-69.46 22.66L-69.46 22.66Q-69.36 22.66-69.51 22.07Q-69.66 21.48-69.85 21.18L-69.85 21.18Q-70.05 21.58-70.00 22.31Q-69.95 23.05-69.46 22.66ZM-102.74 22.66L-102.74 22.66Q-102.44 22.66-102.15 22.61Q-101.85 22.56-101.85 22.07L-101.85 22.07Q-102.25 22.07-102.54 22.12Q-102.84 22.17-102.74 22.66ZM-103.92 23.74L-103.92 23.74Q-104.12 24.53-104.17 25.17Q-104.21 25.81-104.02 26.70L-104.02 26.70Q-102.44 26.20-101.65 24.78Q-100.87 23.35-99.78 22.26L-99.78 22.26Q-100.57 22.26-100.97 22.61Q-101.36 22.95-101.70 23.30Q-102.05 23.64-102.54 23.84Q-103.03 24.04-103.92 23.74ZM-68.18 29.65L-68.18 29.65Q-67.79 29.16-67.74 29.01Q-67.69 28.86-67.59 28.37L-67.59 28.37Q-68.28 28.17-68.18 27.38Q-68.08 26.60-67.79 26.20L-67.79 26.20Q-68.28 26.40-68.28 26.06Q-68.28 25.71-68.48 25.61L-68.48 25.61Q-68.77 25.91-68.97 26.55Q-69.16 27.19-69.16 27.83Q-69.16 28.47-68.92 29.01Q-68.67 29.55-68.18 29.65ZM-67.39 31.72L-67.39 31.72Q-66.90 31.81-66.70 31.17Q-66.51 30.53-67.00 30.44L-67.00 30.44Q-67.20 30.73-67.20 31.08Q-67.20 31.42-67.39 31.72ZM-69.26 33.19L-69.26 33.19Q-68.77 33.19-68.62 32.80Q-68.48 32.41-68.52 31.91Q-68.57 31.42-68.87 31.08Q-69.16 30.73-69.46 30.73L-69.46 30.73Q-69.36 31.52-69.36 31.91Q-69.36 32.31-69.26 33.19Z"/><path fill="#3498DB" opacity="1" d="M-28.70-23.12L-28.70-23.12Q-28.31-22.93-28.60-22.34Q-28.90-21.74-29.19-21.45L-29.19-21.45Q-29.09-21.25-28.99-21.40Q-28.90-21.55-28.80-21.35L-28.80-21.35Q-29.49-19.68-29.98-17.56Q-30.47-15.44-31.65-13.77L-31.65-13.77Q-31.55-12.98-31.75-12.59Q-31.95-12.19-32.15-11.85Q-32.34-11.51-32.54-11.16Q-32.74-10.82-32.54-10.23L-32.54-10.23Q-32.54-10.03-32.79-10.08Q-33.03-10.13-33.13-9.93L-33.13-9.93Q-33.03-8.55-33.67-7.71Q-34.31-6.88-34.71-5.80L-34.71-5.80Q-35.10-5.01-35.10-4.17Q-35.10-3.33-35.79-2.84L-35.79-2.84Q-35.39-2.55-35.15-2.74Q-34.90-2.94-34.71-3.24Q-34.51-3.53-34.21-3.83Q-33.92-4.12-33.43-4.12L-33.43-4.12Q-32.64-5.50-31.16-6.53Q-29.68-7.57-28.31-8.06L-28.31-8.06Q-26.73-9.44-24.32-9.78Q-21.91-10.13-19.44-10.82L-19.44-10.82Q-17.87-11.11-16.34-11.75Q-14.82-12.39-12.75-11.80L-12.75-11.80Q-12.26-11.41-11.96-10.91Q-11.67-10.42-11.17-9.93L-11.17-9.93Q-11.27-8.75-10.78-7.86Q-10.29-6.98-9.70-6.09Q-9.11-5.20-8.57-4.22Q-8.02-3.24-8.02-2.05L-8.02-2.05Q-8.32-2.35-8.42-2.55Q-8.52-2.74-9.01-3.04L-9.01-3.04Q-9.40-1.56-9.89 0.21Q-10.39 1.98-10.93 3.66Q-11.47 5.33-12.11 6.81Q-12.75 8.28-13.44 9.27L-13.44 9.27Q-13.34 9.47-13.19 9.51Q-13.05 9.56-13.05 9.76L-13.05 9.76Q-13.83 10.06-14.33 10.70Q-14.82 11.34-15.26 12.12Q-15.70 12.91-16.20 13.70Q-16.69 14.49-17.38 14.98L-17.38 14.98Q-17.08 15.18-17.18 15.47Q-17.28 15.77-17.38 16.06L-17.38 16.06L-17.97 16.06Q-17.97 16.46-17.87 16.46Q-17.77 16.46-17.97 16.75L-17.97 16.75Q-20.53 18.42-22.64 20.15Q-24.76 21.87-27.03 23.64L-27.03 23.64Q-27.32 23.74-27.42 23.54Q-27.52 23.35-27.72 23.45L-27.72 23.45Q-27.72 23.64-27.91 23.84L-27.91 23.84Q-27.91 24.33-27.57 24.04Q-27.22 23.74-27.32 24.33L-27.32 24.33Q-28.60 24.23-29.59 24.58Q-30.57 24.92-31.46 25.46Q-32.34 26.01-33.28 26.55Q-34.21 27.09-35.39 27.38L-35.39 27.38Q-33.72 27.68-32.49 26.99Q-31.26 26.30-29.68 26.20L-29.68 26.20L-29.68 25.32Q-29.19 26.20-28.26 25.76Q-27.32 25.32-26.83 25.02L-26.83 25.02Q-28.21 26.10-30.32 26.99Q-32.44 27.88-34.71 28.57L-34.71 28.57Q-35.10 28.66-35.10 29.25L-35.10 29.25Q-35.89 29.35-36.72 29.70Q-37.56 30.04-38.45 30.39Q-39.33 30.73-40.27 30.93Q-41.20 31.13-42.09 30.93L-42.09 30.93Q-42.98 30.73-43.62 29.89Q-44.26 29.06-44.60 27.93Q-44.94 26.79-45.09 25.56Q-45.24 24.33-45.04 23.35L-45.04 23.35Q-45.54 22.07-45.19 20.89Q-44.85 19.70-45.04 18.62L-45.04 18.62Q-45.04 18.42-45.34 18.47Q-45.63 18.52-45.73 18.33L-45.73 18.33Q-45.83 15.08-45.14 11.14L-45.14 11.14Q-45.34 10.94-45.54 10.94Q-45.73 10.94-45.93 10.75L-45.93 10.75Q-44.85 6.02-44.16 2.08Q-43.47-1.86-42.78-5.70L-42.78-5.70Q-42.58-5.80-42.34-5.84Q-42.09-5.89-41.99-6.09L-41.99-6.09Q-41.99-6.48-42.24-6.58Q-42.48-6.68-42.38-7.07L-42.38-7.07Q-41.99-7.17-41.94-7.76Q-41.89-8.35-41.20-8.26L-41.20-8.26Q-41.40-8.45-41.65-8.65Q-41.89-8.85-41.99-9.34L-41.99-9.34Q-41.79-9.54-41.60-9.59Q-41.40-9.63-41.20-9.83L-41.20-9.83Q-41.10-10.23-41.25-10.37Q-41.40-10.52-41.50-10.82L-41.50-10.82Q-40.42-12.29-40.27-13.67Q-40.12-15.05-39.04-16.43L-39.04-16.43Q-39.04-16.72-39.38-16.67Q-39.73-16.63-39.63-17.12L-39.63-17.12Q-38.84-17.22-38.59-17.41Q-38.35-17.61-38.15-18.10L-38.15-18.10Q-38.35-18.30-38.50-18.45Q-38.64-18.59-38.74-18.79L-38.74-18.79Q-38.64-19.38-38.30-19.28Q-37.95-19.18-37.86-19.78L-37.86-19.78Q-38.15-19.78-38.15-19.48L-38.15-19.48Q-38.45-20.17-38.25-20.46Q-38.05-20.76-37.76-20.91Q-37.46-21.06-37.17-21.25Q-36.87-21.45-36.97-22.04L-36.97-22.04Q-37.36-22.14-37.27-21.79Q-37.17-21.45-37.36-21.35L-37.36-21.35Q-37.76-21.45-37.56-21.70Q-37.36-21.94-37.36-22.14L-37.36-22.14Q-37.17-22.43-36.97-22.09Q-36.77-21.74-36.38-22.14L-36.38-22.14Q-36.48-22.53-36.87-22.78Q-37.27-23.02-36.77-23.52L-36.77-23.52Q-36.38-23.52-36.38-22.93L-36.38-22.93Q-36.18-22.93-36.13-23.17Q-36.08-23.42-35.79-23.22L-35.79-23.22Q-36.08-23.52-36.08-23.71L-36.08-23.71Q-36.08-24.01-36.23-23.76Q-36.38-23.52-36.58-23.71L-36.58-23.71Q-36.77-24.21-36.43-24.21Q-36.08-24.21-36.08-24.70L-36.08-24.70Q-35.79-24.70-35.69-24.55Q-35.59-24.40-35.39-24.40L-35.39-24.40Q-35.00-24.50-35.05-25.09Q-35.10-25.68-35.69-25.58L-35.69-25.58Q-35.69-25.88-35.54-26.08Q-35.39-26.27-35.39-26.47L-35.39-26.47Q-35.20-26.47-35.35-26.13Q-35.49-25.78-35.20-25.58L-35.20-25.58Q-35.00-25.98-34.80-25.88Q-34.61-25.78-34.80-25.49L-34.80-25.49Q-34.61-26.27-34.11-26.96Q-33.62-27.65-33.13-28.24L-33.13-28.24Q-33.23-28.54-33.92-28.54L-33.92-28.54Q-33.72-28.83-33.28-28.83Q-32.83-28.83-33.03-29.52L-33.03-29.52Q-32.54-29.52-32.34-29.62Q-32.15-29.72-31.85-29.82L-31.85-29.82Q-31.85-30.11-32.10-30.06Q-32.34-30.01-32.54-30.21L-32.54-30.21Q-32.44-30.61-32.10-30.21Q-31.75-29.82-31.75-30.31L-31.75-30.31Q-31.75-30.51-32.05-30.70Q-32.34-30.90-32.54-30.51L-32.54-30.51Q-32.74-30.70-32.59-31.15Q-32.44-31.59-32.15-31.89L-32.15-31.89Q-32.34-32.28-32.64-32.38Q-32.93-32.48-33.03-32.87L-33.03-32.87Q-32.83-33.66-32.00-33.90Q-31.16-34.15-30.37-34.45L-30.37-34.45Q-30.18-35.23-29.29-35.48Q-28.40-35.73-27.91-36.22L-27.91-36.22Q-26.34-35.73-24.76-36.27Q-23.19-36.81-22.10-36.71L-22.10-36.71Q-21.61-36.61-21.41-36.37Q-21.22-36.12-20.82-36.32L-20.82-36.32Q-19.64-37.01-18.07-36.91Q-16.49-36.81-15.01-36.81L-15.01-36.81Q-11.37-36.81-7.53-36.66Q-3.69-36.51-0.25-35.73L-0.25-35.73Q0.25-35.53 0.69-35.43Q1.13-35.33 1.43-34.74L1.43-34.74Q1.62-34.35 1.43-34.35Q1.23-34.35 1.13-34.15L1.13-34.15Q1.62-33.56 2.61-33.46Q3.59-33.36 3.79-32.48L3.79-32.48Q2.90-31.39 1.18-30.85Q-0.54-30.31-1.92-30.80L-1.92-30.80Q-3.10-30.01-5.32-29.33Q-7.53-28.64-9.80-28.93L-9.80-28.93Q-9.70-29.42-9.21-29.38Q-8.71-29.33-8.52-29.52L-8.52-29.52Q-9.50-29.72-10.58-29.42Q-11.67-29.13-12.45-29.23L-12.45-29.23Q-12.55-29.03-12.95-28.83L-12.95-28.83Q-15.80-29.03-19.40-28.88Q-22.99-28.74-26.04-29.23L-26.04-29.23Q-26.44-28.34-26.73-28.00Q-27.03-27.65-26.83-26.67L-26.83-26.67Q-27.12-26.57-27.12-26.82Q-27.12-27.06-27.42-27.06L-27.42-27.06Q-27.52-26.57-27.27-26.52Q-27.03-26.47-26.83-26.47L-26.83-26.47Q-27.03-25.98-27.03-25.73Q-27.03-25.49-27.03-25.09L-27.03-25.09Q-27.81-25.09-28.01-24.85Q-28.21-24.60-28.21-24.26Q-28.21-23.91-28.26-23.57Q-28.31-23.22-28.70-23.12ZM-0.15-34.54L-0.15-34.54Q-0.84-34.94-1.43-34.54L-1.43-34.54Q-1.23-34.54-0.79-34.40Q-0.34-34.25-0.15-34.54ZM-15.31-33.66L-15.31-33.66Q-14.33-33.76-13.24-33.56Q-12.16-33.36-11.13-33.21Q-10.09-33.07-9.16-33.17Q-8.22-33.26-7.43-33.85L-7.43-33.85Q-9.11-34.05-11.17-34.10Q-13.24-34.15-15.31-33.66ZM-22.30-32.67L-22.30-32.67Q-21.22-32.48-20.28-32.38Q-19.35-32.28-18.26-32.28L-18.26-32.28Q-18.76-33.17-20.13-33.02Q-21.51-32.87-22.30-32.67ZM-18.07-32.48L-18.07-32.48Q-17.57-32.48-16.93-32.28Q-16.29-32.08-16.10-32.67L-16.10-32.67Q-16.69-32.77-17.13-32.82Q-17.57-32.87-18.07-32.48ZM1.43-31.89L1.43-31.89Q1.92-31.89 2.07-32.08Q2.22-32.28 2.41-32.48L2.41-32.48L1.72-32.48Q1.82-32.28 1.62-32.23Q1.43-32.18 1.43-31.89ZM-12.95-31.49L-12.95-31.49Q-12.16-31.69-11.27-31.64Q-10.39-31.59-9.60-31.89L-9.60-31.89Q-10.39-31.89-11.67-31.93Q-12.95-31.98-12.95-31.49ZM-12.95-31.20L-12.95-31.20Q-13.05-30.90-14.18-30.90Q-15.31-30.90-15.41-31.20L-15.41-31.20Q-17.28-30.61-19.54-30.85Q-21.81-31.10-24.27-31.10L-24.27-31.10Q-20.33-29.92-15.26-30.16Q-10.19-30.41-5.56-30.80L-5.56-30.80Q-6.55-31.29-7.38-31.34Q-8.22-31.39-9.11-31.25Q-9.99-31.10-10.93-31.00Q-11.86-30.90-12.95-31.20ZM-33.72-22.04L-33.72-22.04Q-33.92-22.43-33.62-22.38Q-33.33-22.34-33.33-22.63L-33.33-22.63Q-33.52-22.63-33.33-23.02Q-33.13-23.42-33.33-23.71L-33.33-23.71Q-33.62-23.52-33.92-22.83Q-34.21-22.14-33.72-22.04ZM-34.80-19.28L-34.80-19.28Q-34.61-19.78-34.56-19.92Q-34.51-20.07-33.92-19.87L-33.92-19.87Q-34.11-20.66-33.72-20.86L-33.72-20.86Q-34.51-21.06-34.11-21.25Q-33.72-21.45-33.72-21.65L-33.72-21.65Q-34.21-21.55-34.26-21.74Q-34.31-21.94-34.71-21.84L-34.71-21.84Q-34.71-21.35-34.85-21.06Q-35.00-20.76-35.15-20.46Q-35.30-20.17-35.30-19.87Q-35.30-19.58-34.80-19.28ZM-31.36-20.17L-31.36-20.17Q-31.55-20.37-31.41-20.76Q-31.26-21.15-31.75-21.06L-31.75-21.06Q-31.75-20.76-31.80-20.46Q-31.85-20.17-31.36-20.17ZM-37.07-14.26L-37.07-14.26Q-36.97-14.46-36.77-14.46Q-36.58-14.46-36.38-14.66L-36.38-14.66Q-36.38-15.54-36.77-15.84L-36.77-15.84Q-36.67-15.35-37.02-14.90Q-37.36-14.46-37.07-14.26ZM-34.02-14.16L-34.02-14.16Q-34.21-14.36-34.07-14.75Q-33.92-15.15-34.41-15.05L-34.41-15.05Q-34.41-14.66-34.41-14.41Q-34.41-14.16-34.02-14.16ZM-35.39-13.47L-35.39-13.47Q-35.00-13.57-34.95-13.33Q-34.90-13.08-34.71-13.08L-34.71-13.08Q-34.71-13.77-34.61-13.97L-34.61-13.97Q-34.90-13.87-35.05-13.77Q-35.20-13.67-35.39-13.47ZM-37.76-12.39L-37.76-12.39Q-37.46-12.49-37.22-12.83Q-36.97-13.18-37.27-13.47L-37.27-13.47Q-37.46-13.28-37.51-12.93Q-37.56-12.59-37.76-12.39ZM-36.28-7.96L-36.28-7.96Q-36.08-8.26-36.03-8.70Q-35.99-9.14-35.89-9.59Q-35.79-10.03-35.54-10.47Q-35.30-10.91-34.80-11.11L-34.80-11.11Q-35.30-11.60-34.95-12.10Q-34.61-12.59-35.20-13.08L-35.20-13.08Q-35.49-12.79-36.08-12.79L-36.08-12.79L-36.08-11.70Q-36.87-11.80-36.72-11.51Q-36.58-11.21-36.97-10.91L-36.97-10.91Q-36.58-10.91-36.33-10.91Q-36.08-10.91-36.08-10.62L-36.08-10.62Q-36.08-9.04-37.07-8.45L-37.07-8.45Q-36.87-8.35-36.97-7.96Q-37.07-7.57-36.58-7.57L-36.58-7.57Q-36.97-8.26-36.67-8.01Q-36.38-7.76-36.28-7.96ZM-16.98-10.82L-16.98-10.82Q-16.59-10.42-15.95-10.03Q-15.31-9.63-14.57-9.34Q-13.83-9.04-13.14-8.90Q-12.45-8.75-11.96-8.85L-11.96-8.85Q-11.96-9.54-12.45-10.13Q-12.95-10.72-13.69-11.01Q-14.42-11.31-15.31-11.26Q-16.20-11.21-16.98-10.82ZM-40.22-7.47L-40.22-7.47Q-40.02-7.17-39.83-7.37Q-39.63-7.57-39.63-7.96L-39.63-7.96Q-39.73-7.96-39.87-8.06Q-40.02-8.16-40.12-7.96L-40.12-7.96Q-39.63-7.76-39.97-7.67Q-40.32-7.57-40.22-7.47ZM-30.57-5.30L-30.57-5.30Q-29.39-5.80-28.16-6.29Q-26.93-6.78-25.84-7.57L-25.84-7.57Q-26.93-7.27-28.36-6.73Q-29.78-6.19-30.57-5.30ZM-19.84-7.07L-19.84-7.07Q-19.05-7.27-18.21-7.07Q-17.38-6.88-17.18-7.47L-17.18-7.47Q-17.77-7.27-18.71-7.42Q-19.64-7.57-19.84-7.07ZM-19.44-5.50L-19.44-5.50Q-17.87-5.30-16.69-4.61Q-15.51-3.92-14.33-3.33L-14.33-3.33Q-14.42-4.02-14.97-4.66Q-15.51-5.30-16.25-5.65Q-16.98-5.99-17.82-6.04Q-18.66-6.09-19.44-5.50ZM-39.04 17.83L-39.04 17.83Q-38.55 17.83-38.35 17.64L-38.35 17.64Q-38.05 19.21-37.27 20.30L-37.27 20.30Q-35.69 20.39-34.02 20.20Q-32.34 20.00-31.26 19.21L-31.26 19.21Q-26.63 17.64-23.09 15.08Q-19.54 12.52-17.18 8.58L-17.18 8.58Q-16.59 6.81-15.61 5.63L-15.61 5.63Q-15.41 4.64-15.06 3.90Q-14.72 3.16-14.42 2.43Q-14.13 1.69-13.98 0.90Q-13.83 0.11-14.03-1.07L-14.03-1.07Q-15.01-2.55-16.74-3.68Q-18.46-4.81-20.72-4.71L-20.72-4.71Q-22.40-4.71-24.02-3.92Q-25.65-3.14-26.73-2.25L-26.73-2.25Q-27.52-2.35-27.72-1.81Q-27.91-1.27-28.40-0.97L-28.40-0.97L-29.39-0.97Q-29.49-0.77-29.49-0.43Q-29.49-0.08-29.88-0.08L-29.88-0.08Q-30.67 0.21-31.16 0.70Q-31.65 1.20-32.10 1.74Q-32.54 2.28-33.03 2.77Q-33.52 3.26-34.31 3.46L-34.31 3.46Q-34.51 2.97-34.85 2.97Q-35.20 2.97-35.69 2.87L-35.69 2.87Q-35.39 2.48-35.05 2.48Q-34.71 2.48-34.41 2.48Q-34.11 2.48-33.82 2.33Q-33.52 2.18-33.43 1.69L-33.43 1.69Q-33.92 1.59-34.02 1.88Q-34.11 2.18-34.61 1.88L-34.61 1.88Q-34.21 1.39-33.67 0.95Q-33.13 0.51-32.54 0.70L-32.54 0.70Q-32.34 0.21-32.74 0.21L-32.74 0.21Q-30.47-1.66-27.81-2.99Q-25.16-4.32-22.60-5.70L-22.60-5.70Q-22.99-5.80-23.43-5.60Q-23.88-5.40-24.42-5.20Q-24.96-5.01-25.45-4.86Q-25.94-4.71-26.53-4.91L-26.53-4.91Q-27.32-4.02-28.16-3.78Q-28.99-3.53-30.08-3.04L-30.08-3.04Q-30.87-1.76-32.83-1.27L-32.83-1.27Q-33.52-0.28-34.41 0.51Q-35.30 1.29-36.13 2.13Q-36.97 2.97-37.61 4.00Q-38.25 5.03-38.35 6.31L-38.35 6.31Q-38.74 6.51-38.99 6.95Q-39.23 7.40-39.63 7.59L-39.63 7.59Q-39.73 8.19-39.97 8.73Q-40.22 9.27-40.46 9.91Q-40.71 10.55-40.81 11.34Q-40.91 12.12-40.71 13.31L-40.71 13.31Q-41.20 13.21-41.20 13.70L-41.20 13.70Q-40.42 13.70-40.22 14.78Q-40.02 15.87-40.22 16.55L-40.22 16.55Q-39.92 16.55-39.78 16.70Q-39.63 16.85-39.23 16.75L-39.23 16.75Q-39.04 16.26-39.43 16.41Q-39.83 16.55-39.73 16.26L-39.73 16.26Q-39.23 15.96-39.14 16.50Q-39.04 17.05-39.23 17.24L-39.23 17.24Q-39.43 17.24-39.43 17.10Q-39.43 16.95-39.63 16.95L-39.63 16.95L-39.63 17.34Q-39.73 17.34-39.73 17.44L-39.73 17.44Q-39.33 17.64-38.99 17.34Q-38.64 17.05-38.45 17.34L-38.45 17.34L-38.45 17.64Q-38.64 17.64-38.99 17.64Q-39.33 17.64-39.04 17.83ZM-9.99-3.83L-9.99-3.83Q-9.80-5.40-10.88-5.50L-10.88-5.50Q-10.68-5.11-10.63-4.47Q-10.58-3.83-9.99-3.83ZM-39.73-5.30L-39.73-5.30Q-39.53-4.81-39.78-4.61Q-40.02-4.42-40.22-4.12L-40.22-4.12Q-39.83-4.22-39.73-4.07Q-39.63-3.92-39.43-3.83L-39.43-3.83Q-39.14-4.02-39.14-4.47Q-39.14-4.91-39.14-5.40L-39.14-5.40Q-39.33-5.40-39.43-5.30Q-39.53-5.20-39.73-5.30ZM-40.22-3.33L-40.22-3.33Q-40.42-2.45-39.73-2.55L-39.73-2.55Q-39.53-2.74-39.58-3.04Q-39.63-3.33-39.43-3.53L-39.43-3.53Q-39.83-3.63-39.87-3.33Q-39.92-3.04-40.22-3.33ZM-41.20-0.68L-41.20-0.68Q-41.10 0.01-40.96 0.41Q-40.81 0.80-40.71 1.59L-40.71 1.59Q-40.51 0.80-40.07 0.26Q-39.63-0.28-39.14-0.87L-39.14-0.87Q-39.63-0.77-39.78-0.97Q-39.92-1.17-39.97-1.46Q-40.02-1.76-40.02-2.00Q-40.02-2.25-40.22-2.45L-40.22-2.45Q-40.51-1.96-40.56-1.41Q-40.61-0.87-41.20-0.68ZM-42.29-1.76L-42.29-1.76Q-42.09-1.07-41.79-0.97L-41.79-0.97Q-41.50-1.17-41.30-1.51Q-41.10-1.86-41.70-2.05L-41.70-2.05Q-41.89-1.76-42.29-1.76ZM-35.79-0.38L-35.79-0.38Q-35.39-0.77-34.90-1.02Q-34.41-1.27-34.31-1.96L-34.31-1.96Q-34.90-1.76-35.44-1.32Q-35.99-0.87-35.79-0.38ZM-19.64 14.29L-19.64 14.29Q-19.15 14.29-19.00 13.90Q-18.85 13.50-18.66 13.01L-18.66 13.01Q-19.64 13.50-19.64 14.29ZM-43.07 17.64L-43.07 17.64Q-43.17 18.03-43.17 18.03L-43.17 18.03Q-43.17 18.03-43.07 18.52L-43.07 18.52L-43.57 18.52Q-43.57 19.31-43.27 20.34Q-42.98 21.38-41.79 21.48L-41.79 21.48Q-41.99 20.59-42.48 20.10Q-42.98 19.61-43.07 18.62L-43.07 18.62Q-42.88 18.42-42.48 18.47Q-42.09 18.52-41.99 18.13L-41.99 18.13Q-42.38 17.24-42.43 16.21Q-42.48 15.18-42.58 14.29L-42.58 14.29L-43.07 14.29Q-43.47 14.98-43.57 16.06Q-43.66 17.14-43.07 17.64ZM-24.07 17.05L-24.07 17.05Q-25.06 17.24-25.80 18.03Q-26.53 18.82-27.42 18.72L-27.42 18.72Q-27.62 19.02-27.62 19.31Q-27.62 19.61-27.91 19.70L-27.91 19.70Q-28.31 19.90-28.45 19.70Q-28.60 19.51-29.09 19.70L-29.09 19.70Q-28.99 19.80-29.19 20.00Q-29.39 20.20-29.78 20.34Q-30.18 20.49-30.62 20.59Q-31.06 20.69-31.36 20.49L-31.36 20.49Q-30.96 21.18-30.32 21.08Q-29.68 20.98-29.04 20.59Q-28.40 20.20-27.67 19.80Q-26.93 19.41-26.14 19.41L-26.14 19.41Q-25.94 19.11-25.50 18.82Q-25.06 18.52-24.61 18.18Q-24.17 17.83-23.92 17.54Q-23.68 17.24-23.88 16.95L-23.88 16.95Q-23.88 17.05-23.92 17.14Q-23.97 17.24-24.07 17.05ZM-44.16 20.79L-44.16 21.67Q-43.86 21.58-43.81 21.72Q-43.76 21.87-43.57 21.97L-43.57 21.97Q-43.76 21.48-43.81 21.28Q-43.86 21.08-44.16 20.79L-44.16 20.79ZM-32.15 20.79L-32.15 21.48Q-31.75 21.67-31.75 21.33Q-31.75 20.98-31.65 20.79L-31.65 20.79L-32.15 20.79ZM-41.40 22.26L-41.40 22.26Q-40.61 22.76-39.73 23.50Q-38.84 24.23-37.56 23.84L-37.56 23.84Q-38.15 22.95-39.28 22.56Q-40.42 22.17-41.20 21.48L-41.20 21.48Q-41.10 21.77-41.40 22.26ZM-27.72 22.26L-27.72 22.26Q-27.72 22.76-27.22 22.51Q-26.73 22.26-26.53 22.07L-26.53 22.07Q-26.93 21.97-27.22 22.07Q-27.52 22.17-27.72 22.26ZM-34.31 25.32L-34.31 25.32Q-32.15 25.12-30.57 24.33Q-28.99 23.54-27.91 22.56L-27.91 22.56Q-29.29 23.05-31.31 23.84Q-33.33 24.63-34.31 25.32ZM-43.27 23.35L-43.27 23.35Q-42.58 23.35-42.24 24.14Q-41.89 24.92-41.40 24.73L-41.40 24.73Q-41.79 24.43-41.99 23.99Q-42.19 23.54-42.38 23.05L-42.38 23.05Q-42.68 23.15-43.07 23.05Q-43.47 22.95-43.27 23.35ZM-33.92 23.35L-33.92 23.35Q-34.80 23.25-35.30 23.15Q-35.79 23.05-36.38 23.05L-36.38 23.05Q-36.18 23.84-35.30 23.84Q-34.41 23.84-33.92 23.35ZM-38.45 26.99L-38.45 26.99Q-40.12 26.50-41.30 25.96Q-42.48 25.42-43.57 24.63L-43.57 24.63Q-43.27 26.30-41.60 26.99Q-39.92 27.68-38.45 26.99ZM-40.22 25.32L-40.22 25.32Q-40.51 25.32-40.51 25.02Q-40.51 24.73-40.81 24.92L-40.81 24.92Q-41.01 25.32-40.71 25.46Q-40.42 25.61-40.22 25.32ZM-40.71 28.07L-40.71 28.07Q-41.79 27.88-42.38 27.43Q-42.98 26.99-43.86 26.79L-43.86 26.79Q-43.66 27.78-43.37 28.86Q-43.07 29.94-41.99 30.34L-41.99 30.34Q-41.10 30.53-40.17 30.44Q-39.23 30.34-38.30 29.99Q-37.36 29.65-36.63 29.21Q-35.89 28.76-35.49 28.37L-35.49 28.37Q-36.77 27.68-38.15 27.97Q-39.53 28.27-40.71 28.07Z"/><path fill="#3498DB" opacity="1" d="M14.42 10.75L14.42 10.75Q14.62 10.94 14.72 10.84L14.72 10.84Q14.72 10.75 14.82 10.65L14.82 10.65Q15.21 10.06 15.85 9.12Q16.49 8.19 17.18 7.25Q17.87 6.31 18.51 5.33Q19.15 4.35 19.44 3.56L19.44 3.56Q20.33 3.26 20.97 2.03Q21.61 0.80 21.81 0.11L21.81 0.11Q22.79-0.18 23.28-1.36Q23.78-2.55 24.86-2.94L24.86-2.94Q25.75-5.20 27.47-7.17Q29.19-9.14 30.27-11.70L30.27-11.70Q31.85-13.08 32.79-14.75Q33.72-16.43 34.80-18.59L34.80-18.59Q36.67-20.27 37.71-22.24Q38.74-24.21 40.42-25.39L40.42-25.39Q40.51-25.58 40.37-25.73Q40.22-25.88 40.42-26.08L40.42-26.08Q41.20-26.18 41.50-26.52Q41.79-26.86 41.99-27.95L41.99-27.95Q42.38-28.24 42.83-28.19Q43.27-28.14 43.47-28.64L43.47-28.64Q43.66-29.33 43.42-29.57Q43.17-29.82 43.47-30.61L43.47-30.61Q44.55-31.20 45.73-30.90L45.73-30.90Q45.34-31.39 45.73-32.28Q46.13-33.17 46.52-33.85L46.52-33.85Q47.60-33.26 47.95-32.28Q48.29-31.29 48.39-30.26Q48.49-29.23 48.54-28.14Q48.59-27.06 49.08-26.27L49.08-26.27Q48.69-24.99 48.74-23.86Q48.78-22.73 49.03-21.70Q49.28-20.66 49.67-19.58Q50.06-18.50 50.36-17.41L50.36-17.41Q50.06-16.53 50.26-15.15Q50.46-13.77 50.66-12.88L50.66-12.88Q50.66-12.49 50.51-12.44Q50.36-12.39 50.26-12.00L50.26-12.00Q50.75-9.54 50.51-6.98Q50.26-4.42 50.46-1.27L50.46-1.27Q50.06-1.27 50.02-0.77Q49.97-0.28 50.02 0.41Q50.06 1.10 49.97 1.64Q49.87 2.18 49.28 2.28L49.28 2.28Q49.67 2.38 49.67 2.62Q49.67 2.87 49.87 3.07L49.87 3.07Q49.28 5.72 48.93 8.83Q48.59 11.93 48.10 14.39L48.10 14.39Q47.60 16.95 46.86 19.46Q46.13 21.97 46.22 25.12L46.22 25.12Q45.44 25.61 45.34 26.30Q45.24 26.99 45.04 27.68L45.04 27.68Q45.24 27.78 45.44 27.97L45.44 27.97Q44.85 29.35 44.60 30.83Q44.35 32.31 43.27 33.09L43.27 33.09Q42.98 33.09 42.88 32.85Q42.78 32.60 42.38 32.80L42.38 32.80Q42.09 32.11 42.04 31.37Q41.99 30.63 41.84 29.99Q41.70 29.35 41.35 28.81Q41.01 28.27 40.22 27.88L40.22 27.88Q39.23 25.02 38.94 22.31Q38.64 19.61 39.04 16.26L39.04 16.26Q38.84 14.39 38.79 12.37Q38.74 10.35 39.23 8.78L39.23 8.78Q39.14 6.81 39.33 4.54Q39.53 2.28 39.83 0.01Q40.12-2.25 40.32-4.37Q40.51-6.48 40.42-8.16L40.42-8.16Q38.45-5.99 36.92-3.24Q35.39-0.48 33.13 1.10L33.13 1.10Q32.93 2.38 32.24 3.12Q31.55 3.85 30.96 4.35L30.96 4.35Q31.16 4.54 31.36 4.59Q31.55 4.64 31.36 5.03L31.36 5.03Q31.16 5.23 30.96 4.74Q30.77 4.25 30.37 4.64L30.37 4.64Q30.18 5.03 30.42 5.08Q30.67 5.13 30.57 5.43L30.57 5.43Q30.08 5.13 29.88 5.63L29.88 5.63Q29.98 5.63 30.13 5.97Q30.27 6.31 29.88 6.22L29.88 6.22Q29.88 5.72 29.59 6.07Q29.29 6.41 29.59 6.71L29.59 6.71Q29.39 6.91 29.09 6.76Q28.80 6.61 28.60 7.10L28.60 7.10Q29.09 7.30 28.99 7.45Q28.90 7.59 28.99 7.99L28.99 7.99Q28.21 8.58 28.06 9.47Q27.91 10.35 26.83 10.84L26.83 10.84Q26.34 10.45 26.58 10.01Q26.83 9.56 26.34 9.27L26.34 9.27Q26.14 9.76 25.35 10.40Q24.56 11.04 24.76 11.53L24.76 11.53Q22.89 12.71 21.56 14.49Q20.23 16.26 18.26 17.34L18.26 17.34Q18.07 16.95 18.21 16.75Q18.36 16.55 18.61 16.36Q18.85 16.16 19.05 15.96Q19.25 15.77 18.95 15.37L18.95 15.37Q18.66 16.16 17.57 16.70Q16.49 17.24 15.80 18.62L15.80 18.62Q16.10 18.72 16.49 18.72L16.49 18.72Q14.82 21.08 12.55 22.66Q10.29 24.23 8.52 26.50L8.52 26.50Q8.22 27.38 7.93 28.52Q7.63 29.65 6.55 29.94L6.55 29.94Q5.96 28.86 6.20 27.34Q6.45 25.81 6.05 24.63L6.05 24.63Q5.66 24.63 5.32 24.63Q4.97 24.63 4.78 24.14L4.78 24.14Q5.27 23.64 5.32 23.25Q5.37 22.86 5.86 22.46L5.86 22.46Q5.66 20.69 5.46 19.11Q5.27 17.54 5.17 15.91Q5.07 14.29 5.12 12.57Q5.17 10.84 5.66 8.87L5.66 8.87Q5.27 8.78 5.32 8.28Q5.37 7.79 5.46 7.20Q5.56 6.61 5.56 6.02Q5.56 5.43 5.27 5.13L5.27 5.13Q5.76 4.94 5.81 4.20Q5.86 3.46 5.86 2.67Q5.86 1.88 5.96 1.10Q6.05 0.31 6.74-0.08L6.74-0.08Q6.55-0.28 6.30-0.43Q6.05-0.58 6.25-0.97L6.25-0.97Q6.74-2.74 6.69-4.37Q6.65-5.99 6.74-7.57L6.74-7.57Q7.24-11.41 7.88-15.44Q8.52-19.48 8.71-23.71L8.71-23.71Q9.11-23.52 9.11-23.76Q9.11-24.01 9.30-24.21L9.30-24.21Q9.11-25.78 9.60-27.75Q10.09-29.72 10.68-31.69L10.68-31.69Q10.88-31.89 11.32-31.79Q11.77-31.69 11.96-31.89L11.96-31.89Q12.16-32.48 12.21-33.66Q12.26-34.84 12.50-35.87Q12.75-36.91 13.29-37.45Q13.83-37.99 15.01-37.30L15.01-37.30Q15.01-35.92 15.36-34.64Q15.70-33.36 16.05-32.13Q16.39-30.90 16.69-29.52Q16.98-28.14 16.79-26.57L16.79-26.57Q17.18-26.57 16.93-26.03Q16.69-25.49 17.18-25.49L17.18-25.49Q16.98-24.60 17.08-23.57Q17.18-22.53 17.28-21.45Q17.38-20.37 17.43-19.38Q17.48-18.40 17.08-17.61L17.08-17.61Q17.28-16.82 17.28-15.64Q17.28-14.46 17.18-13.18L17.18-13.18Q17.18-12.69 17.13-11.95Q17.08-11.21 17.08-10.47Q17.08-9.73 17.08-9.14Q17.08-8.55 16.98-8.45L16.98-8.45Q16.89-8.26 16.79-8.31Q16.69-8.35 16.59-8.45Q16.49-8.55 16.44-8.60Q16.39-8.65 16.39-8.35L16.39-8.35Q16.39-8.16 16.59-8.11Q16.79-8.06 16.79-7.67L16.79-7.67Q16.89-6.29 16.44-4.32Q16.00-2.35 16.00-1.27L16.00-1.27Q15.80 1.59 15.46 4.89Q15.11 8.19 14.42 10.75ZM47.80-25.68L47.80-25.68Q47.60-27.06 47.55-28.83Q47.50-30.61 46.72-32.08L46.72-32.08Q45.34-27.85 47.11-25.09L47.11-25.09Q47.70-24.99 47.50-25.34Q47.31-25.68 47.80-25.68ZM11.08-26.57L11.08-26.57Q11.57-27.36 11.57-27.95Q11.57-28.54 11.47-29.42L11.47-29.42Q10.78-28.93 10.53-27.90Q10.29-26.86 10.14-25.63Q9.99-24.40 9.80-23.17Q9.60-21.94 9.11-21.06L9.11-21.06Q9.30-19.58 9.11-18.00Q8.91-16.43 8.61-14.75Q8.32-13.08 8.12-11.41Q7.93-9.73 8.12-8.06L8.12-8.06Q8.81-10.23 8.86-11.70Q8.91-13.18 9.60-14.56L9.60-14.56Q9.21-15.44 9.70-16.48Q10.19-17.51 10.19-18.79L10.19-18.79Q10.39-20.76 10.78-22.78Q11.17-24.80 11.08-26.57ZM40.42-12.59L40.42-12.59Q40.71-12.79 40.91-13.28Q41.10-13.77 40.71-13.97L40.71-13.97Q40.32-13.97 40.22-13.47Q40.12-12.98 39.92-12.49L39.92-12.49Q40.12-12.39 40.32-12.69Q40.51-12.98 40.42-12.59ZM39.33-10.13L39.33-10.13Q39.83-10.42 39.87-10.77Q39.92-11.11 39.92-11.90L39.92-11.90Q39.92-11.90 39.53-11.90L39.53-11.90Q39.63-11.51 39.19-11.06Q38.74-10.62 39.33-10.13ZM45.54-6.39L45.54-6.39Q45.54-7.17 45.78-8.21Q46.03-9.24 45.63-10.13L45.63-10.13Q45.54-10.03 45.39-9.49Q45.24-8.95 45.19-8.35Q45.14-7.76 45.19-7.17Q45.24-6.58 45.54-6.39ZM38.15-8.75L38.15-8.75Q37.66-8.06 37.17-7.03Q36.67-5.99 35.89-5.70L35.89-5.70Q35.59-5.11 35.99-4.91L35.99-4.91Q35.69-5.01 35.54-4.76Q35.39-4.52 35.25-4.12Q35.10-3.73 34.90-3.38Q34.71-3.04 34.41-3.04L34.41-3.04Q34.51-2.55 34.16-2.15Q33.82-1.76 33.47-1.27Q33.13-0.77 32.88-0.23Q32.64 0.31 32.93 0.90L32.93 0.90Q33.33 0.01 34.02-0.92Q34.71-1.86 35.44-2.79Q36.18-3.73 36.82-4.81Q37.46-5.89 37.76-7.07L37.76-7.07Q37.86-7.37 38.10-7.22Q38.35-7.07 38.55-7.27L38.55-7.27Q38.55-7.67 38.05-7.86L38.05-7.86Q38.45-8.35 38.64-8.11Q38.84-7.86 39.14-7.67L39.14-7.67Q38.84-8.35 39.04-8.99Q39.23-9.63 38.55-10.32L38.55-10.32Q38.74-9.93 38.59-9.19Q38.45-8.45 38.15-8.75ZM45.14 3.07L45.14 3.07Q45.83 1.98 45.73 0.26Q45.63-1.46 45.44-2.84L45.44-2.84Q45.63-2.55 45.68-2.60Q45.73-2.64 45.63-2.84Q45.54-3.04 45.34-3.28Q45.14-3.53 44.94-3.53L44.94-3.53Q44.85-3.04 44.90-2.69Q44.94-2.35 45.14-1.76L45.14-1.76Q44.94-1.56 44.80-1.66Q44.65-1.76 44.45-1.76L44.45-1.76Q44.45-0.38 44.70 0.75Q44.94 1.88 45.14 3.07ZM8.91 8.28L8.91 8.28Q9.50 7.20 9.94 5.58Q10.39 3.95 10.68 2.13Q10.98 0.31 11.13-1.46Q11.27-3.24 11.27-4.61L11.27-4.61Q10.29-2.05 9.85 1.49Q9.40 5.03 8.91 8.28ZM29.09 1.88L29.09 1.88Q29.29 1.79 29.44 1.69Q29.59 1.59 29.78 1.20L29.78 1.20Q29.49 1.10 29.49 1.39L29.49 1.39Q29.29 1.59 29.19 1.49Q29.09 1.39 29.09 1.29L29.09 1.29Q28.70 1.29 28.95 1.49Q29.19 1.69 29.09 1.88ZM44.85 6.22L44.85 6.22Q45.24 5.92 45.14 5.43Q45.04 4.94 44.85 4.64L44.85 4.64Q44.45 4.84 44.40 5.53Q44.35 6.22 44.85 6.22ZM23.78 8.09L23.78 8.09Q25.16 6.71 26.39 5.13Q27.62 3.56 28.80 1.79L28.80 1.79Q27.52 2.48 26.78 3.90Q26.04 5.33 24.66 5.82L24.66 5.82Q24.37 6.71 23.78 7.45Q23.19 8.19 22.45 8.87Q21.71 9.56 21.07 10.30Q20.43 11.04 20.04 12.03L20.04 12.03Q21.12 10.94 22.15 9.96Q23.19 8.97 23.78 8.09ZM43.76 11.04L43.76 11.04Q43.96 9.96 43.76 9.02Q43.57 8.09 43.37 7.30L43.37 7.30Q43.07 8.09 43.17 9.32Q43.27 10.55 43.76 11.04ZM40.91 26.89L40.91 26.89Q40.32 22.76 40.22 18.92Q40.12 15.08 40.02 10.94L40.02 10.94Q39.53 15.18 39.63 19.31Q39.73 23.45 40.91 26.89ZM44.16 16.16L44.16 16.16Q43.96 15.37 44.45 15.08Q44.94 14.78 44.75 13.80L44.75 13.80Q44.26 13.60 44.11 13.99Q43.96 14.39 43.47 14.29L43.47 14.29Q43.27 14.78 43.37 15.18Q43.47 15.57 43.37 16.06L43.37 16.06Q43.86 16.06 44.16 16.16ZM43.57 18.33L43.57 18.33Q43.86 18.33 43.81 17.83Q43.76 17.34 43.76 17.14L43.76 17.14Q43.47 17.24 43.42 17.69Q43.37 18.13 43.57 18.33ZM18.76 12.81L18.76 12.81Q18.95 13.50 18.76 13.26Q18.56 13.01 18.07 13.21L18.07 13.21Q18.07 13.40 18.46 13.40Q18.85 13.40 19.05 13.50L19.05 13.50Q19.05 13.31 19.15 13.06Q19.25 12.81 18.76 12.81ZM19.35 15.47L19.35 15.47Q19.74 15.67 19.79 15.32Q19.84 14.98 20.13 15.08L20.13 15.08Q19.94 14.59 19.54 14.83Q19.15 15.08 19.35 15.47ZM8.22 17.24L8.22 17.24Q8.81 17.44 8.86 16.85Q8.91 16.26 8.91 15.77L8.91 15.77Q8.52 15.87 8.42 16.31Q8.32 16.75 8.22 17.24ZM42.38 24.23L42.38 24.23Q42.88 24.23 42.98 23.79Q43.07 23.35 42.29 23.35L42.29 23.35Q42.48 23.84 42.38 24.23ZM43.27 31.32L43.27 31.32Q43.47 31.22 43.62 30.78Q43.76 30.34 43.96 29.80Q44.16 29.25 44.40 28.76Q44.65 28.27 45.04 28.07L45.04 28.07Q45.14 27.78 44.75 27.93Q44.35 28.07 44.55 27.58L44.55 27.58Q44.45 27.97 44.11 28.42Q43.76 28.86 43.42 29.30Q43.07 29.75 42.98 30.24Q42.88 30.73 43.27 31.32ZM7.04 27.29L7.04 27.29Q8.12 27.09 7.88 26.10Q7.63 25.12 7.43 24.53L7.43 24.53Q7.33 24.43 7.24 24.43Q7.14 24.43 6.94 24.33L6.94 24.33Q7.14 25.12 7.09 25.91Q7.04 26.70 7.04 27.29Z"/><path fill="#3498DB" opacity="1" d="M92.99 29.94L92.99 29.94Q92.30 29.94 92.15 30.53Q92.01 31.13 91.32 31.13L91.32 31.13Q90.63 30.63 90.43 29.75Q90.23 28.86 90.18 27.93Q90.14 26.99 90.14 26.01Q90.14 25.02 89.84 24.23L89.84 24.23Q90.04 24.04 90.09 23.69Q90.14 23.35 90.63 23.45L90.63 23.45Q90.53 22.95 89.64 23.15L89.64 23.15Q89.45 22.76 89.74 22.51Q90.04 22.26 89.64 22.17L89.64 22.17Q89.94 21.97 90.33 22.02Q90.73 22.07 90.63 21.58L90.63 21.58Q91.42 21.58 91.22 22.12Q91.02 22.66 90.73 22.95L90.73 22.95Q91.12 24.14 90.97 25.86Q90.82 27.58 91.51 28.86L91.51 28.86Q92.20 28.27 92.35 27.34Q92.50 26.40 92.40 25.37Q92.30 24.33 92.10 23.20Q91.91 22.07 91.91 20.98L91.91 20.98Q91.42 20.89 91.22 21.03Q91.02 21.18 90.73 21.18L90.73 21.18Q90.73 20.59 90.73 20.10Q90.73 19.61 90.23 19.41L90.23 19.41Q90.73 19.11 90.82 18.47Q90.92 17.83 90.92 17.05Q90.92 16.26 91.02 15.47Q91.12 14.68 91.51 13.99L91.51 13.99Q91.42 13.70 91.12 13.60Q90.82 13.50 90.73 13.11L90.73 13.11Q91.22 12.62 90.97 12.27Q90.73 11.93 90.73 11.14L90.73 11.14Q90.92 10.94 91.07 10.75Q91.22 10.55 91.71 10.75L91.71 10.75Q91.71 10.15 91.27 10.45Q90.82 10.75 90.73 10.35L90.73 10.35Q90.73 9.66 91.07 10.01Q91.42 10.35 91.91 10.15L91.91 10.15Q91.91 9.07 91.91 7.84Q91.91 6.61 92.20 5.82L92.20 5.82Q92.20 5.63 92.10 5.53Q92.01 5.43 91.91 5.63L91.91 5.63Q92.30 4.94 92.15 3.90Q92.01 2.87 92.79 2.08L92.79 2.08Q92.20 1.79 92.25 0.65Q92.30-0.48 92.99-0.87L92.99-0.87Q92.40-0.87 92.35-1.86Q92.30-2.84 92.79-3.04L92.79-3.04Q92.10-3.43 91.91-2.99Q91.71-2.55 91.56-1.81Q91.42-1.07 91.27-0.43Q91.12 0.21 90.63 0.21L90.63 0.21Q90.43-0.28 90.48-0.72Q90.53-1.17 90.63-1.86L90.63-1.86Q86.20 0.51 81.23 2.08Q76.25 3.66 70.64 4.74L70.64 4.74Q70.35 4.74 70.25 4.99Q70.15 5.23 70.15 5.43Q70.15 5.63 70.10 5.77Q70.05 5.92 69.76 5.92L69.76 5.92Q69.85 6.02 70.05 6.31Q70.25 6.61 69.76 6.51L69.76 6.51Q69.85 7.00 70.05 6.81Q70.25 6.61 70.35 6.91L70.35 6.91Q70.05 7.20 70.00 7.74Q69.95 8.28 69.85 8.83Q69.76 9.37 69.66 9.86Q69.56 10.35 69.16 10.55L69.16 10.55Q69.16 10.94 69.56 10.89Q69.95 10.84 69.76 11.34L69.76 11.34Q69.26 11.14 69.26 11.48Q69.26 11.83 69.07 11.83L69.07 11.83Q69.07 12.03 69.21 12.12Q69.36 12.22 69.36 12.42L69.36 12.42Q68.08 17.24 67.24 21.48Q66.41 25.71 64.83 30.24L64.83 30.24Q63.75 30.24 63.06 30.53L63.06 30.53Q62.37 29.85 61.93 29.01Q61.49 28.17 61.49 27.19L61.49 27.19L62.17 27.19Q62.08 27.97 62.42 28.42Q62.77 28.86 63.06 29.25L63.06 29.25Q63.65 29.45 63.70 29.11Q63.75 28.76 63.95 28.57L63.95 28.57Q63.26 28.07 62.91 27.48Q62.57 26.89 62.86 25.91L62.86 25.91Q62.86 25.71 62.47 25.71Q62.08 25.71 62.67 25.61L62.67 25.61Q62.67 25.12 62.47 24.97Q62.27 24.82 62.17 24.43L62.17 24.43Q61.78 24.43 61.68 24.58Q61.58 24.73 61.39 24.73L61.39 24.73Q61.29 25.22 61.44 25.37Q61.58 25.51 61.49 25.91L61.49 25.91Q60.70 24.53 60.40 22.81Q60.11 21.08 60.01 19.21L60.01 19.21Q59.81 18.92 60.11 18.92Q60.40 18.92 60.60 18.72L60.60 18.72Q60.40 18.52 60.11 18.42Q59.81 18.33 59.61 18.03L59.61 18.03Q59.52 16.46 59.17 14.98Q58.83 13.50 59.22 12.42L59.22 12.42Q59.42 11.93 59.02 12.03Q58.63 12.12 58.73 11.73L58.73 11.73Q59.02 10.75 58.97 9.91Q58.93 9.07 58.88 8.28Q58.83 7.50 58.83 6.76Q58.83 6.02 59.22 5.23L59.22 5.23Q59.61 5.13 59.61 5.82L59.61 5.82Q60.01 5.92 60.06 5.67Q60.11 5.43 60.40 5.43L60.40 5.43Q60.40 4.94 59.71 5.03Q59.02 5.13 58.83 4.84L58.83 4.84Q59.02 4.05 59.02 3.71Q59.02 3.36 59.22 2.67L59.22 2.67Q59.71 2.97 60.06 3.07Q60.40 3.16 60.60 2.48L60.60 2.48Q60.40 1.98 59.96 2.13Q59.52 2.28 59.22 2.48L59.22 2.48Q59.32 2.08 59.27 1.34Q59.22 0.60 59.32-0.18Q59.42-0.97 59.61-1.71Q59.81-2.45 60.40-2.84L60.40-2.84Q60.50-1.76 60.16-0.68Q59.81 0.41 59.81 1.79L59.81 1.79Q60.30 1.69 60.45 1.39Q60.60 1.10 60.60 0.70Q60.60 0.31 60.65-0.08Q60.70-0.48 60.99-0.68L60.99-0.68Q60.80-0.87 60.40-1.07L60.40-1.07Q60.80-1.27 60.80-1.56Q60.80-1.86 60.75-2.15Q60.70-2.45 60.70-2.69Q60.70-2.94 60.99-3.14L60.99-3.14Q60.70-3.53 60.35-3.28Q60.01-3.04 59.81-3.33L59.81-3.33Q59.52-4.32 59.96-4.76Q60.40-5.20 60.01-5.50L60.01-5.50Q59.91-5.80 60.01-5.80Q60.11-5.80 60.30-5.75Q60.50-5.70 60.70-5.70Q60.89-5.70 60.99-5.89L60.99-5.89Q60.89-6.09 60.65-6.04Q60.40-5.99 60.40-6.29L60.40-6.29Q60.60-7.37 61.58-7.07L61.58-7.07Q61.49-7.57 60.99-7.42Q60.50-7.27 60.60-7.76L60.60-7.76Q60.70-8.26 60.94-8.40Q61.19-8.55 61.39-9.04L61.39-9.04Q61.29-9.34 60.80-9.34L60.80-9.34Q60.99-9.83 60.99-9.88Q60.99-9.93 60.80-10.42L60.80-10.42Q61.19-10.32 61.24-10.62Q61.29-10.91 61.29-11.26Q61.29-11.60 61.34-11.85Q61.39-12.10 61.78-12.00L61.78-12.00Q61.68-12.19 61.68-12.49Q61.68-12.79 61.49-12.88L61.49-12.88Q61.68-13.57 62.37-13.47L62.37-13.47Q62.57-13.97 62.17-13.87Q61.78-13.77 61.58-13.97L61.58-13.97Q61.58-15.44 62.57-15.74L62.57-15.74Q62.08-15.84 62.13-16.58Q62.17-17.31 62.67-17.51L62.67-17.51Q62.27-17.91 62.77-18.74Q63.26-19.58 63.45-20.17L63.45-20.17Q63.85-19.97 64.44-19.97L64.44-19.97Q65.23-23.22 66.36-25.83Q67.49-28.44 67.79-31.29L67.79-31.29Q66.80-29.72 66.01-27.95Q65.23-26.18 65.23-24.21L65.23-24.21Q64.64-24.01 64.49-23.42Q64.34-22.83 64.24-22.14Q64.14-21.45 63.95-20.96Q63.75-20.46 63.06-20.37L63.06-20.37Q63.16-21.74 63.65-22.53Q64.14-23.32 63.95-24.60L63.95-24.60Q64.34-24.99 64.83-24.90L64.83-24.90Q64.64-26.37 65.23-27.80Q65.82-29.23 66.51-30.31L66.51-30.31Q66.51-30.41 66.36-30.41Q66.21-30.41 66.11-30.51L66.11-30.51Q66.80-31.79 67.64-33.02Q68.48-34.25 69.07-35.82L69.07-35.82L69.76-35.82Q69.76-36.02 69.56-35.97Q69.36-35.92 69.16-36.02L69.16-36.02Q69.46-36.71 70.20-36.91Q70.94-37.10 71.43-37.60L71.43-37.60Q71.23-38.38 71.43-38.93Q71.63-39.47 72.61-39.37L72.61-39.37Q72.81-38.48 72.51-37.10Q72.22-35.73 71.72-34.64L71.72-34.64Q71.92-34.45 72.12-34.49Q72.32-34.54 72.22-33.85L72.22-33.85Q72.71-34.05 72.96-34.59Q73.20-35.13 73.99-34.94L73.99-34.94Q74.19-33.36 73.79-31.34Q73.40-29.33 73.79-27.95L73.79-27.95Q73.69-27.55 72.91-27.36L72.91-27.36Q72.91-27.06 73.20-27.11Q73.50-27.16 73.40-26.86L73.40-26.86Q72.91-24.90 72.81-22.58Q72.71-20.27 72.22-18.30L72.22-18.30Q72.02-17.81 72.36-17.86Q72.71-17.91 72.61-17.51L72.61-17.51Q72.02-17.51 72.02-17.31L72.02-17.31Q72.32-17.31 72.32-16.97Q72.32-16.63 72.02-16.43L72.02-16.43L72.61-16.43Q72.12-15.74 71.92-14.85Q71.72-13.97 71.68-13.03Q71.63-12.10 71.58-11.06Q71.53-10.03 71.23-9.04L71.23-9.04Q73.89-10.13 76.75-10.82Q79.60-11.51 82.51-12.10Q85.41-12.69 88.36-13.28Q91.32-13.87 94.07-14.85L94.07-14.85Q94.07-15.05 93.68-15.05L93.68-15.05Q94.57-17.02 95.35-19.43Q96.14-21.84 96.54-24.01L96.54-24.01Q95.75-23.12 95.26-21.94Q94.76-20.76 94.37-19.43Q93.98-18.10 93.68-16.82Q93.38-15.54 92.99-14.66L92.99-14.66Q92.70-14.85 92.65-15.49Q92.60-16.13 92.74-16.82Q92.89-17.51 93.14-18.15Q93.38-18.79 93.68-18.99L93.68-18.99Q93.38-20.17 94.27-20.66L94.27-20.66Q94.37-22.34 95.11-23.71Q95.85-25.09 96.68-26.32Q97.52-27.55 98.26-28.93Q99.00-30.31 99.09-31.98L99.09-31.98Q100.08-33.07 100.42-34.20Q100.77-35.33 101.46-36.61L101.46-36.61L102.34-36.61Q102.84-35.33 102.39-34.20Q101.95-33.07 102.05-31.98L102.05-31.98Q102.84-32.67 103.13-33.81Q103.43-34.94 104.61-35.23L104.61-35.23Q104.61-34.94 104.90-34.94L104.90-34.94Q104.81-34.35 104.90-34.00Q105.00-33.66 104.81-33.26L104.81-33.26Q104.81-32.87 105.49-32.87L105.49-32.87Q105.20-32.38 105.20-31.89Q105.20-31.39 105.20-30.90Q105.20-30.41 105.00-30.06Q104.81-29.72 104.21-29.62L104.21-29.62Q104.41-29.42 104.76-29.38Q105.10-29.33 105.10-28.93L105.10-28.93Q104.90-28.44 104.90-27.75Q104.90-27.06 104.41-26.86L104.41-26.86Q104.81-24.70 104.46-22.73Q104.12-20.76 104.02-18.10L104.02-18.10Q103.82-18.00 103.72-18.15Q103.62-18.30 103.53-18.10L103.53-18.10Q104.31-17.71 103.92-16.97Q103.53-16.23 103.82-15.15L103.82-15.15L102.64-15.15Q103.13-14.75 103.97-14.66Q104.81-14.56 105.64-14.56Q106.48-14.56 107.32-14.51Q108.15-14.46 108.65-14.16L108.65-14.16Q108.45-13.18 107.56-12.83Q106.68-12.49 105.89-12.00L105.89-12.00Q106.18-11.60 106.87-11.55Q107.56-11.51 108.25-11.60L108.25-11.60Q108.35-11.31 108.30-10.96Q108.25-10.62 108.65-10.82L108.65-10.82Q108.15-10.13 107.41-9.83Q106.68-9.54 105.79-9.29Q104.90-9.04 104.07-8.80Q103.23-8.55 102.64-7.96L102.64-7.96Q102.64-7.67 102.98-7.62Q103.33-7.57 103.13-7.07L103.13-7.07Q102.34-1.56 101.51 3.80Q100.67 9.17 99.78 15.67L99.78 15.67L99.29 15.67Q99.78 16.46 99.39 17.83Q99.00 19.21 98.41 19.80L98.41 19.80Q98.70 20.30 98.80 20.98Q98.90 21.67 98.11 21.87L98.11 21.87Q98.21 22.07 98.41 22.12Q98.60 22.17 98.80 22.36L98.80 22.36Q98.31 23.45 98.06 24.82Q97.82 26.20 97.57 27.58Q97.32 28.96 96.98 30.39Q96.63 31.81 95.85 33.00L95.85 33.00Q94.86 32.80 94.81 31.96Q94.76 31.13 94.27 30.73L94.27 30.73Q93.68 31.42 93.43 32.01Q93.19 32.60 91.91 32.60L91.91 32.60Q91.22 32.01 91.37 31.77Q91.51 31.52 91.91 31.32Q92.30 31.13 92.70 30.88Q93.09 30.63 92.99 29.94ZM68.87-33.26L68.87-33.26Q69.46-33.26 69.56-33.85Q69.66-34.45 69.95-34.84L69.95-34.84Q69.36-34.64 69.21-34.20Q69.07-33.76 68.87-33.26ZM63.26-18.10L63.26-18.10Q63.75-18.10 64.09-18.79Q64.44-19.48 63.85-19.78L63.85-19.78Q63.45-19.28 63.55-18.94Q63.65-18.59 63.26-18.10ZM66.51-7.76L66.51-7.76Q66.41-7.27 66.60-6.93Q66.80-6.58 66.31-6.29L66.31-6.29Q66.90-6.39 66.75-6.14Q66.60-5.89 66.80-5.89L66.80-5.89Q67.10-6.39 67.79-6.58L67.79-6.58Q67.79-7.07 67.39-7.17Q67.00-7.27 66.80-7.76L66.80-7.76Q67.20-7.76 67.34-8.01Q67.49-8.26 67.79-8.16L67.79-8.16Q67.49-8.75 67.88-8.90Q68.28-9.04 68.48-9.54L68.48-9.54Q68.28-9.73 68.03-9.83Q67.79-9.93 67.69-10.42L67.69-10.42Q67.98-10.91 68.33-11.11Q68.67-11.31 68.87-11.80L68.87-11.80Q68.18-12.39 68.23-13.38Q68.28-14.36 68.48-15.44Q68.67-16.53 68.82-17.51Q68.97-18.50 68.48-19.09L68.48-19.09Q67.69-17.71 67.59-15.79Q67.49-13.87 66.80-12.19L66.80-12.19Q67.29-11.31 66.90-10.18Q66.51-9.04 66.51-7.76ZM105.49-13.08L105.49-13.08Q106.28-13.08 106.58-13.67L106.58-13.67Q106.18-13.67 105.84-13.62Q105.49-13.57 105.49-13.08ZM72.22-8.85L72.22-8.85Q72.61-8.55 71.92-8.50Q71.23-8.45 71.43-7.96L71.43-7.96Q73.10-8.35 75.56-8.90Q78.03-9.44 79.70-10.42L79.70-10.42Q77.43-10.23 75.76-9.54Q74.09-8.85 72.22-8.85ZM62.37-9.54L62.37-9.54Q61.98-9.44 62.03-9.78Q62.08-10.13 61.78-10.23L61.78-10.23Q61.39-9.93 61.78-9.49Q62.17-9.04 62.37-9.54ZM87.18-8.45L87.18-8.45Q88.36-8.65 89.54-8.85Q90.73-9.04 91.51-9.73L91.51-9.73Q90.23-9.54 89.20-9.24Q88.17-8.95 87.18-8.45ZM81.37-7.76L81.37-7.76Q81.77-7.96 81.91-7.62Q82.06-7.27 82.26-7.76L82.26-7.76Q81.87-8.06 82.41-8.16Q82.95-8.26 83.05-8.45L83.05-8.45Q82.55-8.45 81.96-8.16Q81.37-7.86 81.37-7.76ZM71.23-6.29L71.23-6.29Q72.22-5.99 73.00-6.53Q73.79-7.07 74.28-7.57L74.28-7.57Q73.30-7.37 72.46-7.12Q71.63-6.88 71.23-6.29ZM89.15-6.98L89.15-6.98Q89.64-7.07 90.23-7.03Q90.82-6.98 90.82-7.57L90.82-7.57Q90.63-7.17 89.94-7.32Q89.25-7.47 89.15-6.98ZM96.54-5.30L96.54-5.30Q96.44-3.92 96.44-2.94Q96.44-1.96 95.94-1.27L95.94-1.27Q96.63-1.07 96.49-0.23Q96.34 0.60 96.14 1.20L96.14 1.20Q96.34 2.18 96.34 3.41Q96.34 4.64 96.24 5.97Q96.14 7.30 96.09 8.58Q96.04 9.86 96.14 10.75L96.14 10.75Q96.63 10.25 97.03 8.83Q97.42 7.40 97.03 6.91L97.03 6.91Q97.32 6.02 97.57 4.74Q97.82 3.46 98.01 2.03Q98.21 0.60 98.31-0.63Q98.41-1.86 98.41-2.64L98.41-2.64Q98.60-4.02 98.80-5.30Q99.00-6.58 98.11-6.78L98.11-6.78Q97.72-6.39 97.37-5.94Q97.03-5.50 96.54-5.30ZM73.79-2.64L73.79-2.64Q76.35-3.04 78.81-3.48Q81.27-3.92 83.34-4.91L83.34-4.91Q82.16-4.81 80.78-4.56Q79.40-4.32 78.07-4.02Q76.75-3.73 75.61-3.33Q74.48-2.94 73.79-2.64ZM64.64-3.73L64.64-3.73Q65.13-3.63 65.28-3.97Q65.42-4.32 65.52-4.71L65.52-4.71Q65.32-4.61 65.18-4.66Q65.03-4.71 65.03-4.52L65.03-4.52Q65.42-4.32 65.08-4.12Q64.73-3.92 64.64-3.73ZM89.64-4.22L89.64-4.22Q87.38-3.14 84.92-2.40Q82.46-1.66 79.90-0.97Q77.34-0.28 74.78 0.51Q72.22 1.29 69.95 2.28L69.95 2.28Q71.04 2.97 72.02 2.52Q73.00 2.08 74.19 1.98L74.19 1.98Q76.15 1.79 77.24 1.24Q78.32 0.70 79.90 0.21L79.90 0.21Q82.85-0.68 85.56-1.56Q88.26-2.45 90.23-3.92L90.23-3.92Q89.94-3.92 89.64-4.22ZM71.23-2.45L71.23-2.45Q73.00-2.94 73.99-3.73L73.99-3.73Q72.22-3.43 71.23-2.45ZM94.07-1.27L94.07-1.27Q94.57-0.77 94.96-1.46L94.96-1.46Q94.76-1.66 94.42-1.66Q94.07-1.66 94.07-1.27ZM84.52 0.01L84.52 0.01Q85.31-0.08 85.80-0.43Q86.30-0.77 86.89-1.07L86.89-1.07Q86.10-0.97 85.56-0.68Q85.02-0.38 84.52 0.01ZM93.88 0.41L93.88 0.41Q94.57 0.41 94.52-0.04Q94.47-0.48 94.57-0.68L94.57-0.68Q93.68-0.68 93.88 0.41ZM79.11 1.98L79.11 1.98Q79.90 1.98 80.49 1.39L80.49 1.39Q79.21 1.39 79.11 1.98ZM95.45 3.85L95.45 3.85Q95.35 3.46 95.65 3.36Q95.94 3.26 95.85 2.67L95.85 2.67Q95.55 2.77 95.50 2.57Q95.45 2.38 95.26 2.28L95.26 2.28Q95.06 2.48 95.16 3.02Q95.26 3.56 95.45 3.85ZM65.32 3.85L65.32 3.85L66.60 3.85Q66.41 3.36 65.96 3.12Q65.52 2.87 65.03 2.48L65.03 2.48Q64.73 2.87 64.93 3.21Q65.13 3.56 65.32 3.85ZM64.24 6.02L64.24 6.02Q64.73 6.31 64.49 7.30Q64.24 8.28 63.95 8.68L63.95 8.68Q64.73 8.68 64.83 8.97L64.83 8.97Q64.34 9.17 64.49 9.56Q64.64 9.96 64.83 10.15L64.83 10.15Q64.34 10.15 64.24 10.70Q64.14 11.24 64.64 11.34L64.64 11.34Q65.32 9.96 65.47 8.43Q65.62 6.91 66.51 5.82L66.51 5.82Q66.11 5.82 66.06 5.67Q66.01 5.53 66.06 5.38Q66.11 5.23 66.16 5.08Q66.21 4.94 66.11 4.84L66.11 4.84Q64.93 4.74 64.68 4.99Q64.44 5.23 64.24 6.02ZM94.76 5.82L94.76 5.82Q95.55 5.92 95.50 5.43Q95.45 4.94 94.96 4.84L94.96 4.84Q95.16 5.23 94.91 5.33Q94.66 5.43 94.76 5.82ZM94.27 18.03L94.27 18.03Q94.27 17.83 94.76 18.03L94.76 18.03Q95.06 17.64 95.21 16.95Q95.35 16.26 95.40 15.52Q95.45 14.78 95.60 14.14Q95.75 13.50 96.14 13.11L96.14 13.11Q95.06 11.73 95.30 10.11Q95.55 8.48 95.65 6.71L95.65 6.71L94.76 6.71L94.76 7.79Q94.57 7.59 94.12 7.59Q93.68 7.59 93.68 8.09L93.68 8.09Q93.88 8.19 94.32 8.04Q94.76 7.89 94.76 8.28L94.76 8.28Q94.57 9.96 94.47 11.58Q94.37 13.21 93.88 14.49L93.88 14.49Q94.27 14.68 94.47 14.98L94.47 14.98Q93.78 15.08 94.02 15.96Q94.27 16.85 93.88 17.24L93.88 17.24Q94.57 17.14 94.32 17.49Q94.07 17.83 94.27 18.03ZM59.22 7.59L59.22 7.59Q60.01 7.59 60.99 7.79L60.99 7.79Q61.09 7.40 60.85 7.25Q60.60 7.10 60.25 7.10Q59.91 7.10 59.61 7.25Q59.32 7.40 59.22 7.59ZM59.42 10.06L59.42 10.06Q59.52 10.25 59.42 10.60Q59.32 10.94 59.61 10.94L59.61 10.94Q59.81 10.15 60.06 10.45Q60.30 10.75 60.80 10.94L60.80 10.94Q61.09 10.25 61.04 9.71Q60.99 9.17 61.19 8.68L61.19 8.68Q60.99 8.68 60.89 8.58Q60.80 8.48 60.60 8.48L60.60 8.48Q60.21 8.97 60.30 9.51Q60.40 10.06 59.42 10.06ZM59.61 12.22L59.61 12.22Q60.01 12.12 60.30 12.27Q60.60 12.42 60.99 12.42L60.99 12.42Q60.80 11.93 60.99 11.73Q61.19 11.53 60.99 11.34L60.99 11.34Q60.50 11.24 60.40 11.63Q60.30 12.03 59.81 11.83L59.81 11.83Q59.71 11.63 59.61 11.53Q59.52 11.43 59.42 11.73L59.42 11.73Q59.61 11.73 59.61 12.22ZM60.01 13.60L60.01 13.60L60.60 13.60Q60.60 12.81 60.11 12.71L60.11 12.71Q60.11 12.91 60.01 13.06Q59.91 13.21 60.01 13.60ZM60.40 15.47L60.40 15.47Q60.30 15.08 60.60 15.03Q60.89 14.98 60.99 14.49L60.99 14.49Q60.50 14.09 60.30 14.68Q60.11 15.27 60.40 15.47ZM61.58 18.52L61.58 18.52Q62.08 18.42 62.27 18.57Q62.47 18.72 62.67 18.72L62.67 18.72Q63.06 17.14 62.57 15.27L62.57 15.27Q62.27 15.47 62.22 15.96Q62.17 16.46 62.17 17.00Q62.17 17.54 62.08 17.98Q61.98 18.42 61.58 18.52ZM63.85 22.76L63.85 22.76Q63.75 22.26 64.04 22.17Q64.34 22.07 64.44 21.87L64.44 21.87Q64.24 21.87 64.04 21.77Q63.85 21.67 63.65 21.58L63.65 21.58Q63.75 21.87 63.65 22.26Q63.55 22.66 63.85 22.76ZM95.26 29.75L95.26 29.75L96.14 29.75Q96.63 28.57 96.68 27.04Q96.73 25.51 97.72 24.43L97.72 24.43Q97.32 24.53 97.37 24.14Q97.42 23.74 97.13 23.74L97.13 23.74Q96.63 25.42 95.94 26.74Q95.26 28.07 95.26 29.75ZM95.45 30.93L95.45 30.93Q95.94 31.13 95.94 30.63Q95.94 30.14 96.14 29.94L96.14 29.94Q95.65 29.75 95.55 30.09Q95.45 30.44 95.45 30.93Z"/></g><g transform="matrix(1 0 0 1 250.73645005434372 343.5447919298615)" style=""  ><path fill="#309CD5" opacity="1" d="M-54.93-8.30L-54.93 6.75L-51.47 6.75C-49.13 6.75-48.03 5.49-48.03 3.23L-48.03 1.96C-48.03 0.30-48.59-0.86-50.05-1.27C-48.74-1.67-48.29-2.66-48.29-4.25L-48.29-4.96C-48.29-7.18-49.21-8.30-51.56-8.30ZM-53.26-1.91L-53.26-6.77L-51.60-6.77C-50.40-6.77-49.94-6.12-49.94-4.79L-49.94-3.91C-49.94-2.34-50.63-1.91-51.97-1.91ZM-53.26 5.23L-53.26-0.38L-51.79-0.38C-50.35-0.38-49.69 0.18-49.69 1.85L-49.69 3.19C-49.69 4.58-50.25 5.23-51.47 5.23Z"/><path fill="#309CD5" opacity="1" d="M-46.50-8.30L-46.50 6.75L-44.83 6.75L-44.83 0.82L-43.34 0.82C-40.96 0.82-39.84-0.43-39.84-2.81L-39.84-4.62C-39.84-6.90-40.85-8.30-43.21-8.30ZM-44.83-0.68L-44.83-6.77L-43.21-6.77C-41.99-6.77-41.49-6.08-41.49-4.71L-41.49-2.71C-41.49-1.27-42.10-0.68-43.34-0.68Z"/><path fill="#309CD5" opacity="1" d="M-36.85-1.63L-36.85-6.77L-32.34-6.77L-32.34-8.30L-38.53-8.30L-38.53 6.75L-32.34 6.75L-32.34 5.23L-36.85 5.23L-36.85-0.13L-33.17-0.13L-33.17-1.63Z"/><path fill="#309CD5" opacity="1" d="M-22.85-5.35L-22.85 6.75L-21.26 6.75L-21.26-8.30L-23.61-8.30L-25.99 3.72L-28.47-8.30L-30.81-8.30L-30.81 6.75L-29.35 6.75L-29.35-5.24L-26.85 6.73L-25.24 6.73Z"/><path fill="#309CD5" opacity="1" d="M-14.47 0.33L-14.47 6.75L-12.79 6.75L-12.79-8.30L-16.15-8.30C-18.51-8.30-19.50-7.09-19.50-4.86L-19.50-3.63C-19.50-1.97-18.92-0.94-17.65-0.53C-19.01-0.13-19.52 0.99-19.52 2.60L-19.52 4.95C-19.52 5.61-19.56 6.24-19.82 6.75L-18.12 6.75C-17.93 6.32-17.84 5.94-17.84 4.93L-17.84 2.56C-17.84 0.86-17.05 0.33-15.65 0.33ZM-14.47-6.77L-14.47-1.20L-15.74-1.20C-17.05-1.20-17.84-1.63-17.84-3.26L-17.84-4.71C-17.84-6.06-17.35-6.77-16.10-6.77Z"/><path fill="#309CD5" opacity="1" d=""/><path fill="#309CD5" opacity="1" d="M-2.36-0.02L-2.36 6.75L-0.69 6.75L-0.69-8.30L-2.36-8.30L-2.36-1.52L-6.06-1.52L-6.06-8.30L-7.74-8.30L-7.74 6.75L-6.06 6.75L-6.06-0.02Z"/><path fill="#309CD5" opacity="1" d="M6.54 3.72L7.12 6.75L8.79 6.75L5.91-8.30L3.48-8.30L0.60 6.75L2.15 6.75L2.73 3.72ZM4.60-6.40L6.30 2.28L2.95 2.28Z"/><path fill="#309CD5" opacity="1" d="M13.35-8.45C11.05-8.45 9.98-6.94 9.98-4.66L9.98 3.12C9.98 5.40 11.05 6.90 13.35 6.90C15.67 6.90 16.75 5.40 16.75 3.12L16.75 1.25L15.16 1.25L15.16 3.21C15.16 4.56 14.62 5.38 13.39 5.38C12.19 5.38 11.63 4.56 11.63 3.21L11.63-4.75C11.63-6.10 12.19-6.92 13.39-6.92C14.62-6.92 15.16-6.10 15.16-4.75L15.16-3.31L16.75-3.31L16.75-4.66C16.75-6.94 15.67-8.45 13.35-8.45Z"/><path fill="#309CD5" opacity="1" d="M22.25 6.75L22.25-6.77L25.03-6.77L25.03-8.30L17.80-8.30L17.80-6.77L20.58-6.77L20.58 6.75Z"/><path fill="#309CD5" opacity="1" d="M31.78 3.72L32.36 6.75L34.03 6.75L31.15-8.30L28.72-8.30L25.84 6.75L27.39 6.75L27.97 3.72ZM29.84-6.40L31.54 2.28L28.19 2.28Z"/><path fill="#309CD5" opacity="1" d="M41.43-6.77L41.43 6.75L43.11 6.75L43.11-8.30L36.98-8.30L36.57 3.10C36.53 4.54 36.29 5.25 34.89 5.25L34.89 6.78L35.17 6.78C37.47 6.75 38.12 5.40 38.21 3.01L38.55-6.77Z"/><path fill="#309CD5" opacity="1" d="M44.76 3.12C44.76 5.40 45.90 6.90 48.20 6.90C50.53 6.90 51.66 5.40 51.66 3.12L51.66-4.66C51.66-6.96 50.53-8.45 48.20-8.45C45.90-8.45 44.76-6.96 44.76-4.66ZM46.42-4.75C46.42-6.10 47.00-6.92 48.20-6.92C49.43-6.92 49.99-6.10 49.99-4.75L49.99 3.21C49.99 4.58 49.43 5.38 48.20 5.38C47.00 5.38 46.42 4.58 46.42 3.21Z"/><path fill="#309CD5" opacity="1" d="M53.47 3.42L54.72 3.42L54.93-1.22L54.93-8.30L53.26-8.30L53.26-1.22ZM53.28 4.67L53.28 6.75L54.89 6.75L54.89 4.67Z"/></g></svg>